<svg xmlns="http://www.w3.org/2000/svg" viewBox="0 0 1091.86 1078.89"><defs><style>.cls-1{font-size:30px;font-family:Helvetica;}.cls-2{fill:none;stroke:#000;stroke-miterlimit:10;stroke-width:3px;}.cls-3{letter-spacing:-0.04em;}</style></defs><g id="Layer_2" data-name="Layer 2"><g id="Layer_1-2" data-name="Layer 1"><circle cx="490.92" cy="369.91" r="15"/><circle cx="319.92" cy="438.91" r="15"/><circle cx="334.92" cy="243.91" r="15"/><circle cx="583.92" cy="672.91" r="15"/><circle cx="589.92" cy="485.91" r="15"/><circle cx="290.92" cy="809.91" r="15"/><circle cx="475.92" cy="714.91" r="15"/><circle cx="720.92" cy="500.91" r="15"/><circle cx="349.92" cy="602.91" r="15"/><circle cx="705.92" cy="643.91" r="15"/><circle cx="505.92" cy="596.91" r="15"/><circle cx="796.92" cy="794.91" r="15"/><circle cx="184.92" cy="729.91" r="15"/><circle cx="490.92" cy="901.91" r="15"/></g><g id="Layer_5" data-name="Layer 5"><path d="M1029.85,42.07v980h-980v-980h980m10-10H39.85v1000h1000V32.07Z"/><text class="cls-1" transform="translate(25.76 628.17) rotate(-90)">INCLUSIVE</text><line class="cls-2" x1="539.85" y1="34.07" x2="539.85" y2="1023.57"/><line class="cls-2" x1="1037.85" y1="542.57" x2="44.35" y2="542.57"/><text class="cls-1" transform="translate(459.83 25.76)">FUTURISTIC </text><text class="cls-1" transform="translate(437.59 1064.46)">TRADITIONA<tspan class="cls-3" x="181.67" y="0">L</tspan></text><text class="cls-1" transform="translate(1077.43 637.17) rotate(-90)">EXCLUSIVE</text></g></g></svg>