<?xml version="1.0" encoding="utf-8"?>
<!-- Generator: Adobe Illustrator 26.0.2, SVG Export Plug-In . SVG Version: 6.00 Build 0)  -->
<svg version="1.1" id="Layer_1" xmlns="http://www.w3.org/2000/svg" xmlns:xlink="http://www.w3.org/1999/xlink" x="0px" y="0px"
	 viewBox="0 0 1557 617.4" style="enable-background:new 0 0 1557 617.4;" xml:space="preserve">
<style type="text/css">
	.st0{fill:#2B2B2B;}
	.st1{fill:#FFFFFF;}
	.st2{fill:#645656;}
	.st3{fill:#5B5C61;}
	.st4{fill:#7D7772;}
	.st5{display:none;fill:#FFFFFF;}
</style>
<g id="Layer_2_00000120529834053722145880000006153899485336759453_">
	<g id="Layer_1-2">
		<rect x="1189.2" y="0.3" class="st0" width="352.6" height="617"/>
		<path class="st1" d="M1296.8,228.4c-6.7,0-11.2-4.2-11.2-14.1v-3.7c0-9.9,4.4-14.1,11.2-14.1s11.2,4.2,11.2,14.1v3.7
			C1307.9,224.2,1303.5,228.4,1296.8,228.4z M1288.2,214.3c0,8.5,3.4,11.7,8.5,11.7s8.5-3.1,8.5-11.7v-3.7c0-8.5-3.4-11.7-8.5-11.7
			s-8.5,3.2-8.5,11.7V214.3z"/>
		<path class="st1" d="M1333.2,228.4c-6.7,0-11.2-4.2-11.2-14.1v-3.7c0-9.9,4.4-14.1,11.2-14.1s11.2,4.2,11.2,14.1v3.7
			C1344.4,224.2,1339.9,228.4,1333.2,228.4z M1324.7,214.3c0,8.5,3.4,11.7,8.5,11.7s8.5-3.1,8.5-11.7v-3.7c0-8.5-3.4-11.7-8.5-11.7
			s-8.5,3.2-8.5,11.7V214.3z"/>
		<path class="st1" d="M1378.6,196.7v2.5h-15.8v12.2h14.5v2.5h-14.5v14.3h-2.6v-31.4H1378.6z"/>
		<path class="st1" d="M1264.7,228.2l-10.1-22.2c-1.2,0.1-2.3,0.2-3.5,0.1h-12v22.3h-4.4v-52.6h16.4c11.9,0,18.7,5.2,18.7,15.2
			c0,7.5-3.9,12.3-10.8,14.2l10.6,23L1264.7,228.2z M1251.1,202c9.2,0,14.3-3.1,14.3-11s-5.1-11-14.3-11h-12v22H1251.1z"/>
		<path class="st1" d="M1270.1,241.4v4.1h-30.7v19.2h28.5v4.1h-28.4v21h30.7v4.1H1235v-52.6H1270.1z"/>
		<path class="st1" d="M1239.3,404.7v20.8h-4.4v-52.6h16c12.1,0,19.1,5.9,19.1,15.9s-6.9,15.9-19.1,15.9H1239.3z M1250.9,400.6
			c10.1,0,14.7-4.3,14.7-11.7s-4.6-11.9-14.7-11.9h-11.6v23.5L1250.9,400.6z"/>
		<path class="st1" d="M1252.4,334.6l13.2-27.6h4.3v52.8h-4.4v-43.1l-11.3,23.8h-4l-11.1-23.7v43h-4.3V307h4.3L1252.4,334.6z"/>
		<path class="st1" d="M1386.8,278.2l7.6-15.9h2.5v31.4h-2.5v-25.9l-6.5,13.7h-2.3l-6.4-13.6v25.8h-2.5v-31.4h2.4L1386.8,278.2z"/>
		<path class="st1" d="M1339.1,425.2l-6-13.3c-0.7,0.1-1.4,0.1-2.1,0.1h-7.1v13.4h-2.6v-31.4h9.8c7.1,0,11.2,3.1,11.2,9.1
			c0.3,4-2.5,7.7-6.5,8.5l6.3,13.8L1339.1,425.2z M1330.9,409.5c5.5,0,8.6-1.9,8.6-6.6s-3-6.6-8.6-6.6h-7.1v13.2L1330.9,409.5z"/>
		<path class="st1" d="M1354.7,425.3l10.8-31.4h2.4l10.8,31.4h-2.8l-2.6-7.6H1360l-2.6,7.6H1354.7z M1360.8,415.2h11.6l-5.8-17.1
			L1360.8,415.2z"/>
		<path class="st1" d="M1395.1,422.9h15.8v2.5h-18.5v-31.4h2.6V422.9z"/>
		<path class="st1" d="M1440.9,393.9v2.5h-10v29h-2.6v-29h-10v-2.5H1440.9z"/>
		<path class="st1" d="M1449.4,425.3l10.8-31.4h2.5l10.8,31.4h-2.8l-2.6-7.6h-13.2l-2.6,7.6H1449.4z M1455.6,415.2h11.6l-5.8-17.1
			L1455.6,415.2z"/>
		<path class="st1" d="M1306.6,393.9v2.5h-18.4v11.5h17v2.5h-17v12.6h18.4v2.5h-21v-31.5H1306.6z"/>
		<path class="st1" d="M1285.7,359.7l11.1-32.3h2.5l11,32.3h-2.8l-2.7-7.9h-13.6l-2.6,7.9H1285.7z M1292,349.3h11.9l-5.9-17.6
			L1292,349.3z"/>
		<path class="st1" d="M1322.1,327.4l8.7,15.2l8.7-15.2h3.2l-10.5,18.2v14.1h-2.7v-14.1l-10.5-18.2H1322.1z"/>
		<path class="st1" d="M1374.3,337.2c-1.1-5.5-4.3-7.5-8.7-7.5c-5.5,0-8.8,3.2-8.8,12v3.8c0,8.9,3.3,12,8.8,12
			c4.7,0,7.7-2.5,8.7-7.6h2.6c-1,7.3-5.8,10.2-11.3,10.2c-7,0-11.5-4.1-11.5-14.5v-3.8c0-10.5,4.4-14.5,11.5-14.5
			c5.8,0,10.4,3,11.4,10.1H1374.3z"/>
		<path class="st1" d="M1402.1,360c-6.9,0-11.5-4.3-11.5-14.5v-3.8c0-10.2,4.5-14.5,11.5-14.5s11.5,4.4,11.5,14.5v3.8
			C1413.6,355.7,1409,360,1402.1,360z M1393.3,345.5c0,8.8,3.5,12,8.8,12s8.8-3.2,8.8-12v-3.8c0-8.7-3.5-12-8.8-12s-8.8,3.3-8.8,12
			V345.5z"/>
		<path class="st1" d="M1448.3,337.2c-1.1-5.5-4.3-7.5-8.7-7.5c-5.5,0-8.8,3.2-8.8,12v3.8c0,8.9,3.3,12,8.8,12
			c4.7,0,7.7-2.5,8.7-7.6h2.6c-1,7.3-5.8,10.2-11.3,10.2c-7,0-11.5-4.1-11.5-14.5v-3.8c0-10.5,4.4-14.5,11.5-14.5
			c5.8,0,10.3,3,11.4,10.1H1448.3z"/>
		<path class="st1" d="M1487.5,359.7l-11.9-17.2l-6.6,7.8v9.5h-2.7v-32.3h2.7v18.8l15.8-18.8h3.6l-11,12.9l13.3,19.4H1487.5z"/>
		<path class="st1" d="M1288.4,293.9h-2.6v-31.4h2.6V293.9z"/>
		<path class="st1" d="M1306.1,293.9v-31.4h9.6c7,0,11.4,3.7,11.4,13.9v3.7c0,10.2-4.4,13.9-11.4,13.9L1306.1,293.9z M1324.4,280
			v-3.7c0-8.6-3.3-11.4-8.8-11.4h-6.9v26.5h6.9C1321.1,291.4,1324.4,288.8,1324.4,280z"/>
		<path class="st1" d="M1339.1,293.9l10.8-31.4h2.5l10.8,31.4h-2.8l-2.6-7.6h-13.2l-2.6,7.6H1339.1z M1345.3,283.8h11.6l-5.8-17.1
			L1345.3,283.8z"/>
		<rect x="15.2" class="st2" width="352.6" height="617"/>
		<path class="st1" d="M122.7,228.4c-6.7,0-11.2-4.2-11.2-14.1v-3.7c0-9.9,4.4-14.1,11.2-14.1s11.2,4.2,11.2,14.1v3.7
			C133.8,224.2,129.4,228.4,122.7,228.4z M114.2,214.3c0,8.5,3.4,11.7,8.5,11.7s8.5-3.1,8.5-11.7v-3.7c0-8.5-3.4-11.7-8.5-11.7
			s-8.5,3.2-8.5,11.7V214.3z"/>
		<path class="st1" d="M159.2,228.4c-6.7,0-11.2-4.2-11.2-14.1v-3.7c0-9.9,4.4-14.1,11.2-14.1s11.2,4.2,11.2,14.1v3.7
			C170.3,224.2,165.9,228.4,159.2,228.4z M150.6,214.3c0,8.5,3.4,11.7,8.5,11.7s8.5-3.1,8.5-11.7v-3.7c0-8.5-3.4-11.7-8.5-11.7
			s-8.5,3.2-8.5,11.7V214.3z"/>
		<path class="st1" d="M204.5,196.7v2.5h-15.9v12.2h14.5v2.5h-14.5v14.3H186v-31.4H204.5z"/>
		<path class="st1" d="M90.6,228.2l-10.1-22.2c-1.2,0.1-2.3,0.2-3.5,0.1H65v22.3h-4.4v-52.6H77c11.9,0,18.7,5.2,18.7,15.2
			c0,7.5-3.9,12.3-10.8,14.2l10.6,23L90.6,228.2z M77,202c9.2,0,14.3-3.1,14.3-11s-5.1-11-14.3-11H65v22H77z"/>
		<path class="st1" d="M96,241.4v4.1H65.3v19.2h28.4v4.1H65.3v21H96v4.1H60.9v-52.6H96z"/>
		<path class="st1" d="M65.2,404.7v20.8h-4.4v-52.6h16c12.1,0,19.1,6,19.1,15.9s-6.9,15.8-19.1,15.8H65.2z M76.7,400.6
			c10.1,0,14.7-4.3,14.7-11.7S86.9,377,76.8,377H65.2v23.5L76.7,400.6z"/>
		<path class="st1" d="M78.3,334.6L91.6,307h4.3v52.8h-4.4v-43.1l-11.3,23.8h-4l-11.1-23.7v43h-4.4V307H65L78.3,334.6z"/>
		<path class="st1" d="M212.7,278.2l7.6-15.9h2.5v31.4h-2.5v-25.9l-6.5,13.7h-2.3l-6.4-13.6v25.8h-2.5v-31.4h2.5L212.7,278.2z"/>
		<path class="st1" d="M165,425.2l-6-13.3c-0.7,0.1-1.4,0.1-2.1,0.1h-7.1v13.4h-2.6v-31.4h9.8c7.1,0,11.2,3.1,11.2,9.1
			c0,4.5-2.3,7.3-6.5,8.5l6.4,13.8L165,425.2z M156.9,409.5c5.5,0,8.6-1.9,8.6-6.6s-3.1-6.6-8.6-6.6h-7.1v13.2L156.9,409.5z"/>
		<path class="st1" d="M180.6,425.3l10.8-31.4h2.5l10.8,31.4h-2.8l-2.6-7.6H186l-2.6,7.6H180.6z M186.8,415.2h11.6l-5.8-17.1
			L186.8,415.2z"/>
		<path class="st1" d="M221,422.9h15.9v2.5h-18.5v-31.4h2.6L221,422.9z"/>
		<path class="st1" d="M266.9,393.9v2.5h-10v29h-2.6v-29h-10v-2.5H266.9z"/>
		<path class="st1" d="M275.4,425.3l10.8-31.4h2.5l10.8,31.4h-2.8l-2.6-7.6h-13.2l-2.6,7.6H275.4z M281.6,415.2h11.6l-5.8-17.1
			L281.6,415.2z"/>
		<path class="st1" d="M132.6,393.9v2.5h-18.4v11.5h17v2.5h-17v12.6h18.4v2.5h-21v-31.5H132.6z"/>
		<path class="st1" d="M111.6,359.7l11.1-32.3h2.5l11.1,32.3h-2.9l-2.7-7.9h-13.5l-2.6,7.9L111.6,359.7z M118,349.3h11.9l-6-17.6
			L118,349.3z"/>
		<path class="st1" d="M148,327.4l8.7,15.2l8.7-15.2h3.2L158,345.6v14.1h-2.7v-14.1l-10.5-18.2H148z"/>
		<path class="st1" d="M200.2,337.2c-1.1-5.5-4.3-7.5-8.7-7.5c-5.5,0-8.8,3.2-8.8,12v3.8c0,8.9,3.3,12,8.8,12c4.7,0,7.7-2.5,8.7-7.6
			h2.6c-1,7.3-5.8,10.2-11.3,10.2c-7,0-11.5-4.1-11.5-14.5v-3.8c0-10.5,4.4-14.5,11.5-14.5c5.8,0,10.4,3,11.4,10.1L200.2,337.2z"/>
		<path class="st1" d="M228,360c-6.9,0-11.5-4.3-11.5-14.5v-3.8c0-10.2,4.6-14.5,11.5-14.5s11.5,4.4,11.5,14.5v3.8
			C239.5,355.7,235,360,228,360z M219.3,345.5c0,8.8,3.5,12,8.8,12s8.8-3.2,8.8-12v-3.8c0-8.7-3.5-12-8.8-12s-8.8,3.3-8.8,12V345.5z
			"/>
		<path class="st1" d="M274.2,337.2c-1.1-5.5-4.3-7.5-8.7-7.5c-5.5,0-8.8,3.2-8.8,12v3.8c0,8.9,3.3,12,8.8,12c4.7,0,7.7-2.5,8.7-7.6
			h2.6c-1,7.3-5.8,10.2-11.3,10.2c-7,0-11.5-4.1-11.5-14.5v-3.8c0-10.5,4.5-14.5,11.5-14.5c5.8,0,10.4,3,11.4,10.1L274.2,337.2z"/>
		<path class="st1" d="M313.4,359.7l-11.9-17.2l-6.6,7.8v9.5h-2.8v-32.3h2.7v18.8l15.8-18.8h3.6l-11,12.9l13.4,19.4L313.4,359.7z"/>
		<path class="st1" d="M114.3,293.9h-2.6v-31.4h2.6V293.9z"/>
		<path class="st1" d="M132.1,293.9v-31.4h9.6c7,0,11.4,3.7,11.4,13.8v3.7c0,10.2-4.4,13.9-11.4,13.9L132.1,293.9z M150.4,280v-3.7
			c0-8.6-3.3-11.4-8.8-11.4h-6.9v26.5h6.9C147,291.4,150.4,288.8,150.4,280z"/>
		<path class="st1" d="M165,293.9l10.8-31.4h2.4l10.8,31.4h-2.8l-2.6-7.6h-13.2l-2.6,7.6H165z M171.2,283.8h11.6l-5.8-17.1
			L171.2,283.8z"/>
		<rect x="797.2" y="0.3" class="st3" width="352.6" height="617"/>
		<path class="st1" d="M904.9,228.8c-6.7,0-11.2-4.2-11.2-14.1v-3.7c0-9.9,4.4-14.1,11.2-14.1s11.2,4.2,11.2,14.1v3.7
			C916.1,224.6,911.7,228.8,904.9,228.8z M896.4,214.7c0,8.5,3.4,11.7,8.5,11.7s8.5-3.1,8.5-11.7v-3.7c0-8.5-3.4-11.7-8.5-11.7
			s-8.5,3.2-8.5,11.7V214.7z"/>
		<path class="st1" d="M941.4,228.8c-6.7,0-11.2-4.2-11.2-14.1v-3.7c0-9.9,4.4-14.1,11.2-14.1s11.2,4.2,11.2,14.1v3.7
			C952.5,224.6,948.1,228.8,941.4,228.8z M932.9,214.7c0,8.5,3.4,11.7,8.5,11.7s8.5-3.1,8.5-11.7v-3.7c0-8.5-3.4-11.7-8.5-11.7
			s-8.5,3.2-8.5,11.7V214.7z"/>
		<path class="st1" d="M986.7,197.1v2.5h-15.8v12.2h14.5v2.5h-14.5v14.3h-2.6v-31.4H986.7z"/>
		<path class="st1" d="M872.9,228.5l-10.1-22.2c-1.2,0.1-2.3,0.2-3.5,0.1h-12v22.3h-4.4v-52.6h16.4c11.9,0,18.8,5.1,18.8,15.1
			c0,7.5-3.9,12.3-10.8,14.2l10.6,23H872.9z M859.3,202.3c9.2,0,14.3-3.1,14.3-11s-5.1-11-14.3-11h-12v22H859.3z"/>
		<path class="st1" d="M878.3,241.8v4.1h-30.7v19.2H876v4.1h-28.4v21h30.7v4.1h-35.1v-52.6H878.3z"/>
		<path class="st1" d="M847.5,405v20.8h-4.4v-52.6h16c12.1,0,19.1,5.9,19.1,15.9s-7,15.9-19.1,15.9H847.5z M859.1,400.9
			c10.1,0,14.7-4.3,14.7-11.7s-4.6-11.8-14.7-11.8h-11.6v23.5L859.1,400.9z"/>
		<path class="st1" d="M860.6,335l13.2-27.6h4.3v52.8h-4.4v-43.1l-11.3,23.8h-4l-11.1-23.7v43h-4.4v-52.8h4.3L860.6,335z"/>
		<path class="st1" d="M995,278.6l7.6-15.9h2.5v31.4h-2.5v-25.9l-6.5,13.7h-2.3l-6.4-13.6v25.8h-2.5v-31.4h2.5L995,278.6z"/>
		<path class="st1" d="M947.3,425.6l-6-13.3c-0.7,0.1-1.4,0.1-2.1,0.1H932v13.4h-2.6v-31.4h9.8c7.1,0,11.2,3.1,11.2,9.1
			c0.3,4-2.5,7.7-6.5,8.5l6.3,13.8L947.3,425.6z M939.1,409.9c5.5,0,8.6-1.9,8.6-6.6s-3.1-6.6-8.6-6.6H932v13.2L939.1,409.9z"/>
		<path class="st1" d="M962.8,425.7l10.8-31.4h2.5l10.8,31.4h-2.8l-2.6-7.6h-13.2l-2.6,7.6H962.8z M969,415.6h11.6l-5.8-17.1
			L969,415.6z"/>
		<path class="st1" d="M1003.2,423.2h15.8v2.5h-18.5v-31.4h2.6V423.2z"/>
		<path class="st1" d="M1049.1,394.2v2.5h-10v29h-2.7v-29h-10v-2.5H1049.1z"/>
		<path class="st1" d="M1057.6,425.7l10.8-31.4h2.5l10.8,31.4h-2.8l-2.6-7.6H1063l-2.6,7.6H1057.6z M1063.8,415.6h11.6l-5.8-17.1
			L1063.8,415.6z"/>
		<path class="st1" d="M914.8,394.2v2.5h-18.4v11.5h17v2.5h-17v12.6h18.4v2.5h-21v-31.5H914.8z"/>
		<path class="st1" d="M893.8,360.1l11.1-32.3h2.5l11.1,32.3h-2.9l-2.7-7.9h-13.6l-2.6,7.9H893.8z M900.2,349.7h11.9l-6-17.6
			L900.2,349.7z"/>
		<path class="st1" d="M930.2,327.8l8.7,15.2l8.7-15.2h3.2l-10.5,18.2v14.1h-2.7v-14.1l-10.5-18.2H930.2z"/>
		<path class="st1" d="M982.4,337.5c-1.1-5.5-4.3-7.5-8.7-7.5c-5.5,0-8.8,3.2-8.8,12v3.8c0,8.9,3.3,12,8.8,12c4.7,0,7.7-2.5,8.7-7.6
			h2.6c-1,7.3-5.8,10.2-11.3,10.2c-7,0-11.5-4.1-11.5-14.5V342c0-10.5,4.5-14.5,11.5-14.5c5.8,0,10.4,3,11.4,10.1H982.4z"/>
		<path class="st1" d="M1010.3,360.3c-6.9,0-11.5-4.3-11.5-14.5V342c0-10.2,4.5-14.5,11.5-14.5c6.9,0,11.5,4.4,11.5,14.5v3.8
			C1021.8,356.1,1017.2,360.3,1010.3,360.3z M1001.5,345.8c0,8.8,3.5,12,8.8,12c5.3,0,8.8-3.2,8.8-12V342c0-8.7-3.5-12-8.8-12
			s-8.8,3.3-8.8,12V345.8z"/>
		<path class="st1" d="M1056.5,337.5c-1.1-5.5-4.3-7.5-8.7-7.5c-5.5,0-8.8,3.2-8.8,12v3.8c0,8.9,3.3,12,8.8,12
			c4.7,0,7.7-2.5,8.7-7.6h2.6c-1,7.3-5.8,10.2-11.3,10.2c-7,0-11.5-4.1-11.5-14.5V342c0-10.5,4.4-14.5,11.5-14.5
			c5.8,0,10.3,3,11.4,10.1H1056.5z"/>
		<path class="st1" d="M1095.6,360.1l-11.9-17.2l-6.6,7.8v9.5h-2.7v-32.3h2.7v18.8l15.8-18.8h3.6l-11,12.9l13.3,19.4H1095.6z"/>
		<path class="st1" d="M896.5,294.2h-2.6v-31.4h2.6V294.2z"/>
		<path class="st1" d="M914.3,294.2v-31.4h9.6c7,0,11.4,3.7,11.4,13.9v3.7c0,10.2-4.4,13.9-11.4,13.9L914.3,294.2z M932.6,280.3
			v-3.7c0-8.6-3.3-11.4-8.8-11.4H917v26.5h6.9C929.3,291.7,932.6,289.1,932.6,280.3z"/>
		<path class="st1" d="M947.2,294.2l10.8-31.4h2.5l10.8,31.4h-2.8l-2.6-7.6h-13.2l-2.5,7.6H947.2z M953.4,284.1H965l-5.8-17.1
			L953.4,284.1z"/>
		<rect x="406.5" class="st4" width="352.6" height="617"/>
		<path class="st1" d="M513.8,228.4c-6.7,0-11.2-4.2-11.2-14.1v-3.7c0-9.9,4.4-14.1,11.2-14.1c6.7,0,11.2,4.2,11.2,14.1v3.7
			C525,224.2,520.6,228.4,513.8,228.4z M505.3,214.3c0,8.5,3.4,11.7,8.5,11.7c5.1,0,8.5-3.1,8.5-11.7v-3.7c0-8.5-3.4-11.7-8.5-11.7
			c-5.2,0-8.5,3.2-8.5,11.7V214.3z"/>
		<path class="st1" d="M550.3,228.4c-6.7,0-11.2-4.2-11.2-14.1v-3.7c0-9.9,4.4-14.1,11.2-14.1s11.2,4.2,11.2,14.1v3.7
			C561.4,224.2,557,228.4,550.3,228.4z M541.8,214.3c0,8.5,3.4,11.7,8.5,11.7s8.5-3.1,8.5-11.7v-3.7c0-8.5-3.4-11.7-8.5-11.7
			s-8.5,3.2-8.5,11.7V214.3z"/>
		<path class="st1" d="M595.7,196.7v2.5h-15.8v12.2h14.5v2.5h-14.5v14.3h-2.6v-31.4H595.7z"/>
		<path class="st1" d="M481.8,228.2l-10.1-22.2c-1.2,0.1-2.3,0.2-3.5,0.1h-12v22.3h-4.4v-52.6h16.4c11.9,0,18.7,5.2,18.7,15.2
			c0,7.5-3.9,12.3-10.8,14.2l10.6,23L481.8,228.2z M468.2,202c9.2,0,14.3-3.1,14.3-11s-5.1-11-14.3-11h-12v22H468.2z"/>
		<path class="st1" d="M487.2,241.4v4.1h-30.7v19.2h28.4v4.1h-28.4v21h30.7v4.1H452v-52.6H487.2z"/>
		<path class="st1" d="M456.4,404.7v20.8h-4.4v-52.6h16c12.1,0,19.1,5.9,19.1,15.9s-6.9,15.9-19.1,15.9H456.4z M467.9,400.6
			c10.1,0,14.7-4.3,14.7-11.7s-4.6-11.9-14.7-11.9h-11.6v23.5L467.9,400.6z"/>
		<path class="st1" d="M469.5,334.6l13.2-27.6h4.3v52.8h-4.4v-43.1l-11.3,23.8h-4l-11.1-23.7v43h-4.4V307h4.3L469.5,334.6z"/>
		<path class="st1" d="M603.9,278.2l7.6-15.9h2.5v31.4h-2.5v-25.9l-6.5,13.7h-2.3l-6.4-13.6v25.8h-2.5v-31.4h2.4L603.9,278.2z"/>
		<path class="st1" d="M556.2,425.2l-6-13.3c-0.7,0.1-1.4,0.1-2.1,0.1h-7.2v13.4h-2.7v-31.4h9.8c7.1,0,11.2,3.1,11.2,9.1
			c0.3,4-2.5,7.7-6.5,8.5l6.4,13.8H556.2z M548,409.5c5.5,0,8.6-1.9,8.6-6.6s-3.1-6.6-8.6-6.6h-7.2v13.2L548,409.5z"/>
		<path class="st1" d="M571.7,425.3l10.8-31.4h2.5l10.7,31.4h-2.8l-2.6-7.6h-13.2l-2.5,7.6H571.7z M577.9,415.2h11.6l-5.8-17.1
			L577.9,415.2z"/>
		<path class="st1" d="M612.2,422.9H628v2.5h-18.5v-31.4h2.7V422.9z"/>
		<path class="st1" d="M658,393.9v2.5h-10v29h-2.6v-29h-10v-2.5H658z"/>
		<path class="st1" d="M666.5,425.3l10.8-31.4h2.5l10.8,31.4h-2.8l-2.6-7.6h-13.2l-2.5,7.6H666.5z M672.7,415.2h11.6l-5.8-17.1
			L672.7,415.2z"/>
		<path class="st1" d="M523.7,393.9v2.5h-18.4v11.5h17v2.5h-17v12.6h18.4v2.5h-21v-31.5H523.7z"/>
		<path class="st1" d="M502.8,359.7l11-32.3h2.5l11.1,32.3h-2.9l-2.7-7.9h-13.6l-2.6,7.9H502.8z M509.2,349.3h11.9l-6-17.6
			L509.2,349.3z"/>
		<path class="st1" d="M539.2,327.4l8.7,15.2l8.7-15.2h3.2l-10.5,18.2v14.1h-2.7v-14.1L536,327.4H539.2z"/>
		<path class="st1" d="M591.4,337.2c-1.1-5.5-4.3-7.5-8.7-7.5c-5.5,0-8.8,3.2-8.8,12v3.8c0,8.9,3.3,12,8.8,12c4.7,0,7.7-2.5,8.7-7.6
			h2.6c-1,7.3-5.8,10.2-11.3,10.2c-7,0-11.5-4.1-11.5-14.5v-3.8c0-10.5,4.5-14.5,11.5-14.5c5.8,0,10.4,3,11.4,10.1H591.4z"/>
		<path class="st1" d="M619.2,360c-6.9,0-11.5-4.3-11.5-14.5v-3.8c0-10.2,4.6-14.5,11.5-14.5c6.9,0,11.5,4.4,11.5,14.5v3.8
			C630.7,355.7,626.2,360,619.2,360z M610.4,345.5c0,8.8,3.5,12,8.8,12s8.8-3.2,8.8-12v-3.8c0-8.7-3.5-12-8.8-12s-8.8,3.3-8.8,12
			V345.5z"/>
		<path class="st5" d="M665.4,337.2c-1.1-5.5-4.3-7.5-8.7-7.5c-5.5,0-8.8,3.2-8.8,12v3.8c0,8.9,3.3,12,8.8,12c4.7,0,7.7-2.5,8.7-7.6
			h2.6c-1,7.3-5.8,10.1-11.3,10.1c-7,0-11.5-4.1-11.5-14.5v-3.8c0-10.5,4.5-14.5,11.5-14.5c5.8,0,10.3,3,11.4,10.1L665.4,337.2z"/>
		<path class="st1" d="M704.5,359.7l-11.9-17.2l-6.6,7.8v9.5h-2.7v-32.3h2.7v18.8l15.8-18.8h3.6l-11,12.9l13.3,19.4H704.5z"/>
		<path class="st1" d="M505.5,293.9h-2.6v-31.4h2.6V293.9z"/>
		<path class="st1" d="M523.2,293.9v-31.4h9.6c7,0,11.4,3.7,11.4,13.9v3.7c0,10.2-4.4,13.9-11.4,13.9L523.2,293.9z M541.5,280v-3.7
			c0-8.6-3.3-11.4-8.8-11.4h-6.9v26.5h6.9C538.2,291.4,541.5,288.8,541.5,280z"/>
		<path class="st1" d="M556.2,293.9l10.8-31.4h2.5l10.8,31.4h-2.8l-2.6-7.6h-13.3l-2.5,7.6H556.2z M562.4,283.8h11.6l-5.8-17.1
			L562.4,283.8z"/>
		<path class="st1" d="M665.4,337.2c-1.1-5.5-4.3-7.5-8.7-7.5c-5.5,0-8.8,3.2-8.8,12v3.8c0,8.9,3.3,12,8.8,12c4.7,0,7.7-2.5,8.7-7.6
			h2.6c-1,7.3-5.8,10.2-11.3,10.2c-7,0-11.5-4.1-11.5-14.5v-3.8c0-10.5,4.4-14.5,11.5-14.5c5.8,0,10.3,3,11.4,10.1H665.4z"/>
	</g>
</g>
</svg>
