<svg xmlns="http://www.w3.org/2000/svg" viewBox="0 0 1677.09 902.14"><defs><style>.cls-1{fill:#2b2b2b;}.cls-2{font-size:15px;letter-spacing:0.6em;}.cls-15,.cls-17,.cls-19,.cls-2,.cls-20{font-family:DIN2014-Light, "DIN 2014";font-weight:300;}.cls-3{letter-spacing:0.6em;}.cls-4{letter-spacing:0.6em;}.cls-5{letter-spacing:0.56em;}.cls-6{letter-spacing:0.57em;}.cls-7{letter-spacing:0.55em;}.cls-8{letter-spacing:0.56em;}.cls-9{fill:#9b8d3a;}.cls-10{fill:#a8525b;}.cls-11{fill:#cfb828;}.cls-12{fill:#365888;}.cls-13{fill:#fff;}.cls-14,.cls-16,.cls-18{fill:none;stroke:#000;stroke-miterlimit:10;}.cls-14{stroke-width:4.02px;}.cls-15{font-size:128.8px;letter-spacing:0.2em;}.cls-16{stroke-width:3.73px;}.cls-17{font-size:136.63px;letter-spacing:0.2em;}.cls-18{stroke-width:4.1px;}.cls-19{font-size:137.09px;letter-spacing:0.2em;}.cls-20{font-size:14px;letter-spacing:0.58em;}.cls-21{letter-spacing:0.57em;}.cls-22{letter-spacing:0.58em;}.cls-23{letter-spacing:0.53em;}.cls-24{letter-spacing:0.55em;}.cls-25{letter-spacing:0.52em;}.cls-26{letter-spacing:0.54em;}</style></defs><g id="Layer_2" data-name="Layer 2"><g id="Layer_1-2" data-name="Layer 1"><path class="cls-1" d="M808.88,622.57c-6.83,0-11.31-4.25-11.31-14.31v-3.79c0-10,4.48-14.31,11.31-14.31s11.31,4.3,11.31,14.31v3.79C820.19,618.32,815.71,622.57,808.88,622.57Zm-8.63-14.31c0,8.63,3.41,11.82,8.63,11.82s8.63-3.19,8.63-11.82v-3.79c0-8.58-3.41-11.81-8.63-11.81s-8.63,3.23-8.63,11.81Z"/><path class="cls-1" d="M845.81,622.57c-6.83,0-11.31-4.25-11.31-14.31v-3.79c0-10,4.48-14.31,11.31-14.31s11.31,4.3,11.31,14.31v3.79C857.12,618.32,852.64,622.57,845.81,622.57Zm-8.63-14.31c0,8.63,3.41,11.82,8.63,11.82s8.63-3.19,8.63-11.82v-3.79c0-8.58-3.42-11.81-8.63-11.81s-8.63,3.23-8.63,11.81Z"/><path class="cls-1" d="M891.79,590.44v2.49H875.72v12.38H890.4v2.49H875.72v14.49H873V590.44Z"/><path class="cls-1" d="M776.39,622.3l-10.22-22.53a27.56,27.56,0,0,1-3.55.15H750.49v22.62H746V569.27h16.6c12,0,19,5.25,19,15.36,0,7.57-3.94,12.44-11,14.36L781.4,622.3Zm-13.77-26.55c9.34,0,14.51-3.16,14.51-11.12s-5.17-11.19-14.51-11.19H750.49v22.31Z"/><path class="cls-1" d="M781.84,635.74v4.17H750.72v19.46h28.81v4.17H750.72v21.3h31.12V689h-35.6V635.74Z"/><path class="cls-1" d="M750.62,801.19v21.08h-4.48V769h16.22c12.27,0,19.38,6,19.38,16.14s-7,16.06-19.38,16.06ZM762.36,797c10.27,0,14.9-4.4,14.9-11.89s-4.63-12-14.9-12H750.62V797Z"/><path class="cls-1" d="M763.91,730.19l13.43-28h4.4v53.47h-4.48V712l-11.42,24.12h-4l-11.26-24v43.59h-4.48V702.22h4.32Z"/><path class="cls-1" d="M900.1,673l7.72-16.08h2.53v31.85h-2.57V662.56l-6.57,13.86h-2.3l-6.48-13.82v26.17h-2.57V656.92h2.48Z"/><path class="cls-1" d="M851.77,822l-6.12-13.48a16.32,16.32,0,0,1-2.12.09h-7.25v13.54H833.6V790.26h9.93c7.2,0,11.36,3.14,11.36,9.19,0,4.53-2.35,7.44-6.56,8.59L854.77,822Zm-8.24-15.88c5.59,0,8.68-1.89,8.68-6.65s-3.09-6.7-8.68-6.7h-7.25V806.1Z"/><path class="cls-1" d="M867.55,822.09l10.89-31.85h2.5l10.89,31.85H889l-2.64-7.75H873l-2.59,7.75Zm6.28-10.24h11.72l-5.86-17.32Z"/><path class="cls-1" d="M908.5,819.6h16.06v2.49H905.82V790.24h2.68Z"/><path class="cls-1" d="M955,790.24v2.49H944.87v29.36H942.2V792.73H932.09v-2.49Z"/><path class="cls-1" d="M963.62,822.09l10.89-31.85H977l10.9,31.85h-2.82l-2.63-7.75H969.06l-2.58,7.75Zm6.27-10.24h11.73l-5.86-17.32Z"/><path class="cls-1" d="M818.89,790.25v2.49H800.25v11.65H817.5v2.5H800.25v12.75h18.64v2.5H797.57V790.25Z"/><path class="cls-1" d="M797.63,755.63l11.21-32.77h2.57l11.2,32.77h-2.89l-2.71-8H803.24l-2.66,8Zm6.46-10.54h12.06l-6-17.81Z"/><path class="cls-1" d="M834.53,722.86l8.78,15.39,8.79-15.39h3.23l-10.64,18.43v14.34h-2.75V741.29L831.3,722.86Z"/><path class="cls-1" d="M887.42,732.79c-1.09-5.56-4.37-7.65-8.83-7.65-5.6,0-8.88,3.23-8.88,12.16v3.89c0,9,3.33,12.16,8.88,12.16,4.75,0,7.79-2.52,8.83-7.74h2.66c-1,7.36-5.89,10.3-11.49,10.3-7.12,0-11.63-4.13-11.63-14.72V737.3c0-10.59,4.51-14.72,11.63-14.72,5.84,0,10.5,3,11.54,10.21Z"/><path class="cls-1" d="M915.63,755.91c-7,0-11.64-4.37-11.64-14.72V737.3c0-10.31,4.61-14.72,11.64-14.72s11.63,4.41,11.63,14.72v3.89C927.26,751.54,922.65,755.91,915.63,755.91Zm-8.88-14.72c0,8.88,3.51,12.16,8.88,12.16s8.88-3.28,8.88-12.16V737.3c0-8.84-3.52-12.16-8.88-12.16s-8.88,3.32-8.88,12.16Z"/><path class="cls-1" d="M962.44,732.79c-1.09-5.56-4.37-7.65-8.83-7.65-5.6,0-8.88,3.23-8.88,12.16v3.89c0,9,3.33,12.16,8.88,12.16,4.75,0,7.79-2.52,8.83-7.74h2.66c-1,7.36-5.89,10.3-11.49,10.3-7.12,0-11.63-4.13-11.63-14.72V737.3c0-10.59,4.51-14.72,11.63-14.72,5.84,0,10.5,3,11.54,10.21Z"/><path class="cls-1" d="M1002.14,755.63l-12.06-17.48L983.43,746v9.6h-2.76V722.86h2.76v19l16-19H1003L991.93,736l13.53,19.66Z"/><path class="cls-1" d="M800.38,688.87H797.7V657h2.68Z"/><path class="cls-1" d="M818.38,688.87V657h9.69c7.07,0,11.54,3.74,11.54,14v3.78c0,10.3-4.47,14-11.54,14Zm18.56-14v-3.78c0-8.73-3.37-11.54-8.87-11.54h-7v26.86h7C833.52,686.37,836.94,683.7,836.94,674.83Z"/><path class="cls-1" d="M851.75,688.87,862.65,657h2.49L876,688.87h-2.82l-2.63-7.76H857.2l-2.58,7.76ZM858,678.62h11.73l-5.86-17.31Z"/><text class="cls-2" transform="translate(43.48 264.54)">ROOF EI<tspan class="cls-3" x="113.86" y="0">D</tspan><tspan class="cls-4" x="131.88" y="0">AM M</tspan><tspan class="cls-5" x="202.45" y="0">A</tspan><tspan class="cls-6" x="219.04" y="0">Y</tspan><tspan x="235.71" y="0">COCK PERA</tspan><tspan class="cls-7" x="390.42" y="0">L</tspan><tspan class="cls-8" x="406.15" y="0">T</tspan><tspan x="422.37" y="0">A</tspan></text><polygon class="cls-9" points="247.99 224.41 205.9 224.41 163.81 224.41 163.81 159.84 163.81 95.27 205.9 95.27 247.99 95.27 247.99 159.84 247.99 224.41"/><polygon class="cls-10" points="162.24 224.41 103.43 224.41 44.61 224.41 44.61 159.84 44.61 95.27 103.43 95.27 162.24 95.27 162.24 159.84 162.24 224.41"/><polygon class="cls-11" points="378.45 224.41 314 224.41 249.55 224.41 249.55 159.84 249.55 95.27 314 95.27 378.45 95.27 378.45 159.84 378.45 224.41"/><polygon class="cls-12" points="474.13 224.66 427.07 224.66 380.02 224.66 380.02 160.09 380.02 95.52 427.07 95.52 474.13 95.52 474.13 160.09 474.13 224.66"/><path class="cls-13" d="M187.17,155c0-8.67,0-13.79,0-17.18s-.08-5.06-.2-6.84a8.22,8.22,0,0,0-1.09-4.29,5.53,5.53,0,0,0-3.69-2,13.25,13.25,0,0,0-1.84-.25c-.71,0-1.43-.08-1.93-.08a1.15,1.15,0,0,1-.62-.16.61.61,0,0,1-.27-.51.7.7,0,0,1,.43-.69,3.27,3.27,0,0,1,1.35-.2c2.5,0,5.5.08,7.94.17s4.34.17,4.62.17,6.11,0,12.06,0,12.12,0,13.39-.1c1.06,0,2-.13,2.85-.23a18,18,0,0,0,1.94-.32,3.22,3.22,0,0,0,.77-.32,1.82,1.82,0,0,1,.78-.24c.17,0,.28.12.35.3a2,2,0,0,1,.1.7,10.14,10.14,0,0,1-.32,1.74,31.53,31.53,0,0,0-.57,3.49c-.06.56-.14,2.06-.24,3.59s-.21,3.08-.32,3.75a3.14,3.14,0,0,1-.26.82c-.13.24-.29.4-.51.4a.74.74,0,0,1-.7-.39,2.21,2.21,0,0,1-.2-1.05,13.89,13.89,0,0,0-.12-1.8,9.44,9.44,0,0,0-.54-2.2,4.37,4.37,0,0,0-2-2.31,16,16,0,0,0-5.91-1.48c-.94-.11-4.44-.19-7.86-.25s-6.76-.08-7.37-.08a.54.54,0,0,0-.5.26,1.69,1.69,0,0,0-.17.85v30.69a1.86,1.86,0,0,0,.13.85.55.55,0,0,0,.54.26c.73,0,4.51,0,8.43,0s8-.08,9.25-.19a20.33,20.33,0,0,0,3.24-.44,4,4,0,0,0,2-1.12c.38-.44.69-.8.95-1a1.13,1.13,0,0,1,.71-.39.44.44,0,0,1,.4.19,1.2,1.2,0,0,1,.16.7,18.06,18.06,0,0,1-.32,2c-.18,1-.41,2.41-.57,4.24-.11,1.11-.22,2.7-.31,4.1s-.14,2.63-.14,3a7.12,7.12,0,0,1-.09,1.39c-.1.42-.29.72-.68.72a.68.68,0,0,1-.6-.29,1.21,1.21,0,0,1-.18-.71,16.77,16.77,0,0,0-.06-1.71,8.69,8.69,0,0,0-.39-2,4.54,4.54,0,0,0-1.43-2.36,7.73,7.73,0,0,0-4.35-1.53c-1.5-.17-5-.3-8.36-.4s-6.59-.15-7.53-.15a.76.76,0,0,0-.6.22.77.77,0,0,0-.19.55v9.79c0,1.89,0,6.06,0,10s0,7.79,0,9c.17,3.84.67,6.12,2.49,7.44s5,1.68,10.41,1.68c1.45,0,3.39,0,5.34-.15a18.12,18.12,0,0,0,5.34-1.07,6.78,6.78,0,0,0,3.29-2.76,14.61,14.61,0,0,0,1.71-5.25,4.33,4.33,0,0,1,.37-1.29.66.66,0,0,1,.63-.38c.33,0,.5.22.58.54a5.05,5.05,0,0,1,.08,1.13c0,.45-.22,2.56-.51,4.85s-.65,4.77-.93,5.94c-.39,1.44-.81,2.16-1.67,2.52s-2.17.37-4.33.37c-8.4,0-14.46-.17-18.82-.34s-7-.33-8.64-.33c-.28,0-2.17.08-4.41.17s-4.82.16-6.49.16a3.36,3.36,0,0,1-1.35-.19.71.71,0,0,1-.43-.7.62.62,0,0,1,.2-.46,1,1,0,0,1,.69-.2,12.81,12.81,0,0,0,1.67-.14c.58-.09,1.17-.2,1.67-.31a3.1,3.1,0,0,0,2.28-2,16.14,16.14,0,0,0,.94-4.1c.28-2.34.42-5.7.49-9.82s.07-9,.07-14.31V155"/><path class="cls-13" d="M75.2,155.48c0-8.67,0-13.78,0-17.17s-.09-5.06-.2-6.84a8.28,8.28,0,0,0-1.1-4.3,5.57,5.57,0,0,0-3.68-2,12.22,12.22,0,0,0-1.85-.25c-.71-.06-1.43-.08-1.93-.08a1.12,1.12,0,0,1-.61-.17.58.58,0,0,1-.28-.5.71.71,0,0,1,.43-.7,3.33,3.33,0,0,1,1.35-.19c2.5,0,5.5.08,8,.16s4.33.17,4.61.17c.61,0,3-.08,5.73-.17s5.66-.16,7.39-.16a53.94,53.94,0,0,1,10.59.86,24.93,24.93,0,0,1,9.75,4,19.17,19.17,0,0,1,4.88,5.44,18.5,18.5,0,0,1,2.79,9.68,27.4,27.4,0,0,1-3,12.47,46.75,46.75,0,0,1-10.48,13.22c4.56,5.83,8.73,11.23,12.56,16s7.34,9,10.57,12.44a29.27,29.27,0,0,0,8,6.22,18.42,18.42,0,0,0,5.57,1.79,25.53,25.53,0,0,0,2.71.29c.73,0,1.29,0,1.62,0a1.22,1.22,0,0,1,.71.21.61.61,0,0,1,.3.46c0,.33-.17.55-.59.69a7.2,7.2,0,0,1-2.08.2H139a40.36,40.36,0,0,1-7.2-.48,15,15,0,0,1-4.69-1.64,25,25,0,0,1-6.92-6c-2.37-2.72-4.92-6.17-8.09-10.34-2.33-3.06-4.81-6.45-7-9.44s-4-5.57-5.14-7a2.49,2.49,0,0,0-.64-.49,1.61,1.61,0,0,0-.8-.17l-6.84-.11-6.84-.11a.72.72,0,0,0-.59.23,1,1,0,0,0-.18.65v2.67c0,5.34,0,10.2.07,14.32s.2,7.48.48,9.81a10.53,10.53,0,0,0,1,4.1,4.15,4.15,0,0,0,3.3,2c.78.11,1.78.22,2.71.3s1.79.14,2.29.14a1,1,0,0,1,.69.21.61.61,0,0,1,.2.46.7.7,0,0,1-.43.65,2.9,2.9,0,0,1-1.35.24c-3.06,0-6.34-.08-8.92-.17L79.43,207l-4,.16c-2.18.09-4.77.17-6.44.17a3.24,3.24,0,0,1-1.34-.2.7.7,0,0,1-.43-.69.6.6,0,0,1,.19-.46,1,1,0,0,1,.7-.21,11.15,11.15,0,0,0,1.66-.14c.59-.08,1.17-.19,1.67-.3a3.11,3.11,0,0,0,2.28-2,16.55,16.55,0,0,0,1-4.1c.28-2.33.41-5.7.48-9.81s.07-9,.07-14.32V155.48m8.9,9.68a1.49,1.49,0,0,0,.18.75,1.56,1.56,0,0,0,.59.58,14.75,14.75,0,0,0,4.63,1.27,48.36,48.36,0,0,0,7,.51,19.94,19.94,0,0,0,4.21-.39,11.07,11.07,0,0,0,4.12-1.72,14.24,14.24,0,0,0,4.85-6.4A27.85,27.85,0,0,0,111.66,149c0-6.95-1.83-12.51-5.15-16.33s-8.13-5.9-14.08-5.9c-1.66,0-3.25.08-4.55.21a18,18,0,0,0-2.9.45,1.5,1.5,0,0,0-.65.51,1.45,1.45,0,0,0-.23.83v36.36Z"/><path class="cls-13" d="M355.94,193.39a28.29,28.29,0,0,0,1.37,6.8c.85,2.26,2.24,4.2,4.63,5a21.94,21.94,0,0,0,4.4.87,26.53,26.53,0,0,0,2.83.13,1.46,1.46,0,0,1,.65.11.47.47,0,0,1,.24.45c0,.33-.25.58-.67.75a4.86,4.86,0,0,1-1.67.25c-1.22,0-4.83-.09-8.66-.21s-7.85-.29-9.9-.46a10,10,0,0,1-2.52-.43c-.46-.18-.6-.41-.6-.68a.73.73,0,0,1,.18-.52,1.24,1.24,0,0,1,.6-.26c.28,0,.44-.55.52-1.29a14.1,14.1,0,0,0-.07-2.71l-2.67-28.69-2.67-28.69h-.33L328,172.7l-13.62,28.91c-1.17,2.45-1.84,3.92-2.34,4.78s-.83,1.11-1.33,1.11-.72-.27-1.22-1.05-1.17-2.06-2.23-4.06c-1.44-2.72-4.56-8.89-7.38-14.52s-5.35-10.72-5.62-11.28c-.5-1-3.87-8.17-7.26-15.47s-6.81-14.72-7.42-16.22h-.44l-2.23,25.8-2.22,25.8c-.05.89-.08,1.83-.09,2.79s0,1.93,0,2.88a3.47,3.47,0,0,0,.82,2.22,3.6,3.6,0,0,0,2.07,1.22,22.61,22.61,0,0,0,2.57.45c.74.08,1.32.11,1.65.11a1.35,1.35,0,0,1,.62.15.49.49,0,0,1,.28.41.79.79,0,0,1-.5.79,3.94,3.94,0,0,1-1.51.21c-2.05,0-4.42-.09-6.37-.17s-3.52-.16-4-.16-2.08.08-3.92.16-3.91.17-5.42.17a3.5,3.5,0,0,1-1.36-.21.81.81,0,0,1-.52-.79c0-.17.14-.31.34-.41a2,2,0,0,1,.77-.15c.44,0,.86,0,1.38,0a18.28,18.28,0,0,0,2-.29,4.45,4.45,0,0,0,3.43-3.28,28,28,0,0,0,1-5.95l4-36.25,4-36.25a5.05,5.05,0,0,1,.45-1.46.87.87,0,0,1,.77-.54,1.15,1.15,0,0,1,.88.38,4.31,4.31,0,0,1,.79,1.29l17,35,17,35,16.34-34.91,16.34-34.91a5.37,5.37,0,0,1,.71-1.27,1.21,1.21,0,0,1,1-.51c.38,0,.66.22.87.71a8.52,8.52,0,0,1,.46,2.29l3.72,34.14,3.73,34.14"/><path class="cls-13" d="M411.13,155.33c0-8.67,0-13.78,0-17.17s-.09-5.06-.2-6.84a8.28,8.28,0,0,0-1.1-4.3,5.52,5.52,0,0,0-3.68-2,12,12,0,0,0-1.85-.25c-.71-.06-1.43-.08-1.93-.08a1.14,1.14,0,0,1-.61-.17.58.58,0,0,1-.28-.5.71.71,0,0,1,.43-.7,3.36,3.36,0,0,1,1.35-.19c2.5,0,5.51.08,7.95.16s4.34.17,4.62.17c.61,0,3-.08,5.72-.17s5.67-.16,7.39-.16a53.88,53.88,0,0,1,10.59.86,24.86,24.86,0,0,1,9.75,4,19,19,0,0,1,4.88,5.44,18.41,18.41,0,0,1,2.8,9.68A44,44,0,0,1,454.16,158c-2,5.12-5.13,9.67-9.83,11.5a16.13,16.13,0,0,1-3.53,1.39,26.55,26.55,0,0,1-6.33.65c-2.91,0-6.33,0-9-.09s-4.65-.13-4.65-.13a.74.74,0,0,0-.6.23,1,1,0,0,0-.18.65v2.67c0,5.34,0,10.2.07,14.32s.21,7.48.48,9.81a10.36,10.36,0,0,0,1.05,4.1,4.11,4.11,0,0,0,3.29,2c.78.11,1.78.22,2.71.3s1.79.14,2.29.14a1,1,0,0,1,.7.21.6.6,0,0,1,.19.46.7.7,0,0,1-.43.65,2.9,2.9,0,0,1-1.35.24c-3,0-6.33-.08-8.92-.17l-4.75-.16-4,.16c-2.18.09-4.76.17-6.43.17a3.3,3.3,0,0,1-1.35-.2.7.7,0,0,1-.43-.69.6.6,0,0,1,.19-.46,1,1,0,0,1,.7-.21,11.39,11.39,0,0,0,1.67-.14c.58-.08,1.16-.19,1.67-.3a3.1,3.1,0,0,0,2.27-2,15.7,15.7,0,0,0,.95-4.1c.28-2.33.42-5.7.49-9.81s.07-9,.07-14.32V155.33M420,165a1.57,1.57,0,0,0,.18.75,1.6,1.6,0,0,0,.6.58,14.68,14.68,0,0,0,4.62,1.27,48.36,48.36,0,0,0,7.05.51,19.94,19.94,0,0,0,4.21-.39,11.19,11.19,0,0,0,4.13-1.72,14.31,14.31,0,0,0,4.85-6.4,28,28,0,0,0,1.93-10.73c0-6.95-1.84-12.51-5.16-16.33s-8.13-5.9-14.07-5.9c-1.67,0-3.25.08-4.56.21a17.59,17.59,0,0,0-2.89.45,1.38,1.38,0,0,0-.89,1.34V165Z"/><text class="cls-2" transform="translate(659.48 359.81)">ROOF EI<tspan class="cls-3" x="113.86" y="0">D</tspan><tspan class="cls-4" x="131.88" y="0">AM M</tspan><tspan class="cls-5" x="202.45" y="0">A</tspan><tspan class="cls-6" x="219.04" y="0">Y</tspan><tspan x="235.71" y="0">COCK PERA</tspan><tspan class="cls-7" x="390.42" y="0">L</tspan><tspan class="cls-8" x="406.15" y="0">T</tspan><tspan x="422.37" y="0">A</tspan></text><line class="cls-14" x1="725.63" y1="155.24" x2="1036.11" y2="155.24"/><line class="cls-14" x1="880.87" x2="880.87" y2="310.49"/><text class="cls-15" transform="translate(923.04 286.89)">P</text><path d="M794.36,244.45l22.39-46.58h7.35v89.75h-7.47v-73.4l-19,40.14h-6.7l-18.79-40v73.27h-7.47V197.87h7.21Z"/><path d="M815.17,111.41l-17-37.58a44.13,44.13,0,0,1-5.92.26H772v37.74h-7.47V23H792.2c20.09,0,31.68,8.75,31.68,25.63,0,12.62-6.57,20.73-18.28,24l17.94,38.87Zm-23-44.28c15.58,0,24.21-5.28,24.21-18.54s-8.63-18.68-24.21-18.68H772V67.13Z"/><path d="M994.08,23.39v7H942.16V62.81h48.06v7H942.16v35.55h51.92v7H934.69V23.39Z"/><text class="cls-2" transform="translate(1191.48 348.79)">ROOF EI<tspan class="cls-3" x="113.86" y="0">D</tspan><tspan class="cls-4" x="131.88" y="0">AM M</tspan><tspan class="cls-5" x="202.45" y="0">A</tspan><tspan class="cls-6" x="219.04" y="0">Y</tspan><tspan x="235.71" y="0">COCK PERA</tspan><tspan class="cls-7" x="390.42" y="0">L</tspan><tspan class="cls-8" x="406.15" y="0">T</tspan><tspan x="422.37" y="0">A</tspan></text><line class="cls-16" x1="1409.62" y1="11.41" x2="1409.62" y2="290.9"/><text class="cls-17" transform="translate(1442.09 290.99)">P</text><path d="M1332.9,246l23.76-49.41h7.79v94.27h-7.93V213.91l-20.21,42.58h-7.1L1309.28,214v76.79h-7.93V196.56H1309Z"/><path d="M1355,104.85,1336.89,65a46.11,46.11,0,0,1-6.28.28h-21.45v40h-7.93V11h29.38c21.31,0,33.61,9.29,33.61,27.18,0,13.39-7,22-19.4,25.42l19,41.23Zm-24.37-47c16.53,0,25.69-5.6,25.69-19.68s-9.16-19.81-25.69-19.81h-21.45V57.88Z"/><path d="M1517.47,11.48v7.38H1462.4V53.29h51v7.37h-51V98.37h55.07v7.38h-63V11.48Z"/><line class="cls-16" x1="1517.79" y1="150.92" x2="1301.35" y2="150.92"/><line class="cls-18" x1="299.89" y1="579.53" x2="139.85" y2="739.57"/><line class="cls-18" x1="299.47" y1="739.78" x2="139.43" y2="579.74"/><path d="M127.94,706.51l-18.14-40a48.26,48.26,0,0,1-6.31.27H82V707H74V612.36h29.47c21.39,0,33.73,9.32,33.73,27.28,0,13.44-7,22.07-19.47,25.5l19.1,41.37Zm-24.45-47.13c16.59,0,25.78-5.62,25.78-19.74s-9.19-19.87-25.78-19.87H82v39.61Z"/><path d="M252,489.4v7.4H196.73v34.54h51.15v7.41H196.73v37.83H252V584H188.78V489.4Z"/><path d="M219.66,783.34l23.84-49.57h7.81v94.58h-7.95V751.18L223.09,793.9H216l-20-42.59v77h-8V733.77h7.68Z"/><text class="cls-19" transform="translate(294.26 706.54)">P</text><text class="cls-2" transform="translate(0 898.08)">ROOF EI<tspan class="cls-3" x="113.86" y="0">D</tspan><tspan class="cls-4" x="131.88" y="0">AM M</tspan><tspan class="cls-5" x="202.45" y="0">A</tspan><tspan class="cls-6" x="219.04" y="0">Y</tspan><tspan x="235.71" y="0">COCK PERA</tspan><tspan class="cls-7" x="390.42" y="0">L</tspan><tspan class="cls-8" x="406.15" y="0">T</tspan><tspan x="422.37" y="0">A</tspan></text><text class="cls-20" transform="translate(1251.05 771.74)">ROOF EI<tspan class="cls-21" x="103.92" y="0">D</tspan><tspan class="cls-22" x="120.4" y="0">AM M</tspan><tspan class="cls-23" x="184.93" y="0">A</tspan><tspan class="cls-24" x="200.07" y="0">Y</tspan><tspan class="cls-22" x="215.29" y="0">COCK PERA</tspan><tspan class="cls-25" x="356.66" y="0">L</tspan><tspan class="cls-26" x="371.01" y="0">T</tspan><tspan x="385.81" y="0">A</tspan></text><path d="M1306.11,731.49l-18.14-40a48.26,48.26,0,0,1-6.31.27h-21.52v40.17h-8V637.34h29.47c21.39,0,33.73,9.32,33.73,27.28,0,13.44-7,22.07-19.47,25.5l19.1,41.37Zm-24.45-47.13c16.59,0,25.78-5.62,25.78-19.74s-9.19-19.87-25.78-19.87h-21.52v39.61Z"/><path d="M1425.13,637.7v7.4h-55.26v34.54H1421v7.41h-51.15v37.83h55.26v7.4h-63.21V637.7Z"/><path d="M1503.52,687.27l23.84-49.57h7.82v94.58h-8V655.11L1507,697.83h-7.13l-20-42.59v77h-8V637.7h7.68Z"/><text class="cls-19" transform="translate(1569.21 731.85)">P</text></g></g></svg>