<?xml version="1.0" encoding="utf-8"?>
<!-- Generator: Adobe Illustrator 26.0.2, SVG Export Plug-In . SVG Version: 6.00 Build 0)  -->
<svg version="1.1" id="Layer_1" xmlns="http://www.w3.org/2000/svg" xmlns:xlink="http://www.w3.org/1999/xlink" x="0px" y="0px"
	 viewBox="0 0 1677.1 902.1" style="enable-background:new 0 0 1677.1 902.1;" xml:space="preserve">
<style type="text/css">
	.st0{fill:#2B2B2B;}
	.st1{enable-background:new    ;}
	.st2{fill:#9B8D3A;}
	.st3{fill:#A8525B;}
	.st4{fill:#CFB828;}
	.st5{fill:#365888;}
	.st6{fill:#FFFFFF;}
	.st7{fill:none;stroke:#000000;stroke-width:4.02;stroke-miterlimit:10;}
	.st8{fill:none;stroke:#000000;stroke-width:3.73;stroke-miterlimit:10;}
	.st9{fill:none;stroke:#000000;stroke-width:4.1;stroke-miterlimit:10;}
</style>
<g id="Layer_2_00000005226435755882399010000005508254248649444024_">
	<g id="Layer_1-2">
		<path class="st0" d="M808.9,622.6c-6.8,0-11.3-4.2-11.3-14.3v-3.8c0-10,4.5-14.3,11.3-14.3s11.3,4.3,11.3,14.3v3.8
			C820.2,618.3,815.7,622.6,808.9,622.6z M800.2,608.3c0,8.6,3.4,11.8,8.6,11.8s8.6-3.2,8.6-11.8v-3.8c0-8.6-3.4-11.8-8.6-11.8
			s-8.6,3.2-8.6,11.8V608.3z"/>
		<path class="st0" d="M845.8,622.6c-6.8,0-11.3-4.2-11.3-14.3v-3.8c0-10,4.5-14.3,11.3-14.3s11.3,4.3,11.3,14.3v3.8
			C857.1,618.3,852.6,622.6,845.8,622.6z M837.2,608.3c0,8.6,3.4,11.8,8.6,11.8s8.6-3.2,8.6-11.8v-3.8c0-8.6-3.4-11.8-8.6-11.8
			s-8.6,3.2-8.6,11.8V608.3z"/>
		<path class="st0" d="M891.8,590.4v2.5h-16.1v12.4h14.7v2.5h-14.7v14.5H873v-31.8H891.8z"/>
		<path class="st0" d="M776.4,622.3l-10.2-22.5c-1.2,0.1-2.4,0.2-3.5,0.2h-12.1v22.6H746v-53.3h16.6c12,0,19,5.2,19,15.4
			c0,7.6-3.9,12.4-11,14.4l10.8,23.3H776.4z M762.6,595.8c9.3,0,14.5-3.2,14.5-11.1s-5.2-11.2-14.5-11.2h-12.1v22.3H762.6z"/>
		<path class="st0" d="M781.8,635.7v4.2h-31.1v19.5h28.8v4.2h-28.8v21.3h31.1v4.2h-35.6v-53.3H781.8z"/>
		<path class="st0" d="M750.6,801.2v21.1h-4.5V769h16.2c12.3,0,19.4,6,19.4,16.1s-7,16.1-19.4,16.1L750.6,801.2z M762.4,797
			c10.3,0,14.9-4.4,14.9-11.9s-4.6-12-14.9-12h-11.7V797H762.4z"/>
		<path class="st0" d="M763.9,730.2l13.4-28h4.4v53.5h-4.5V712l-11.4,24.1h-4l-11.3-24v43.6h-4.5v-53.5h4.3L763.9,730.2z"/>
		<path class="st0" d="M900.1,673l7.7-16.1h2.5v31.8h-2.6v-26.2l-6.6,13.9h-2.3l-6.5-13.8v26.2h-2.6v-31.8h2.5L900.1,673z"/>
		<path class="st0" d="M851.8,822l-6.1-13.5c-0.7,0.1-1.4,0.1-2.1,0.1h-7.2v13.5h-2.7v-31.9h9.9c7.2,0,11.4,3.1,11.4,9.2
			c0,4.5-2.3,7.4-6.6,8.6l6.4,14H851.8z M843.5,806.1c5.6,0,8.7-1.9,8.7-6.7s-3.1-6.7-8.7-6.7h-7.2v13.3L843.5,806.1z"/>
		<path class="st0" d="M867.5,822.1l10.9-31.8h2.5l10.9,31.8H889l-2.6-7.8H873l-2.6,7.8H867.5z M873.8,811.9h11.7l-5.9-17.3
			L873.8,811.9z"/>
		<path class="st0" d="M908.5,819.6h16.1v2.5h-18.7v-31.8h2.7V819.6z"/>
		<path class="st0" d="M955,790.2v2.5h-10.1v29.4h-2.7v-29.4h-10.1v-2.5H955z"/>
		<path class="st0" d="M963.6,822.1l10.9-31.8h2.5l10.9,31.8h-2.8l-2.6-7.8h-13.4l-2.6,7.8H963.6z M969.9,811.9h11.7l-5.9-17.3
			L969.9,811.9z"/>
		<path class="st0" d="M818.9,790.2v2.5h-18.6v11.7h17.2v2.5h-17.2v12.8h18.6v2.5h-21.3v-31.9H818.9z"/>
		<path class="st0" d="M797.6,755.6l11.2-32.8h2.6l11.2,32.8h-2.9l-2.7-8h-13.8l-2.7,8H797.6z M804.1,745.1h12.1l-6-17.8
			L804.1,745.1z"/>
		<path class="st0" d="M834.5,722.9l8.8,15.4l8.8-15.4h3.2l-10.6,18.4v14.3h-2.8v-14.3l-10.6-18.4H834.5z"/>
		<path class="st0" d="M887.4,732.8c-1.1-5.6-4.4-7.7-8.8-7.7c-5.6,0-8.9,3.2-8.9,12.2v3.9c0,9,3.3,12.2,8.9,12.2
			c4.8,0,7.8-2.5,8.8-7.7h2.7c-1,7.4-5.9,10.3-11.5,10.3c-7.1,0-11.6-4.1-11.6-14.7v-3.9c0-10.6,4.5-14.7,11.6-14.7
			c5.8,0,10.5,3,11.5,10.2L887.4,732.8z"/>
		<path class="st0" d="M915.6,755.9c-7,0-11.6-4.4-11.6-14.7v-3.9c0-10.3,4.6-14.7,11.6-14.7s11.6,4.4,11.6,14.7v3.9
			C927.3,751.5,922.7,755.9,915.6,755.9z M906.8,741.2c0,8.9,3.5,12.2,8.9,12.2s8.9-3.3,8.9-12.2v-3.9c0-8.8-3.5-12.2-8.9-12.2
			s-8.9,3.3-8.9,12.2V741.2z"/>
		<path class="st0" d="M962.4,732.8c-1.1-5.6-4.4-7.7-8.8-7.7c-5.6,0-8.9,3.2-8.9,12.2v3.9c0,9,3.3,12.2,8.9,12.2
			c4.8,0,7.8-2.5,8.8-7.7h2.7c-1,7.4-5.9,10.3-11.5,10.3c-7.1,0-11.6-4.1-11.6-14.7v-3.9c0-10.6,4.5-14.7,11.6-14.7
			c5.8,0,10.5,3,11.5,10.2L962.4,732.8z"/>
		<path class="st0" d="M1002.1,755.6l-12.1-17.5l-6.7,7.8v9.6h-2.8v-32.7h2.8v19l16-19h3.6L991.9,736l13.5,19.7L1002.1,755.6z"/>
		<path class="st0" d="M800.4,688.9h-2.7V657h2.7V688.9z"/>
		<path class="st0" d="M818.4,688.9V657h9.7c7.1,0,11.5,3.7,11.5,14v3.8c0,10.3-4.5,14-11.5,14L818.4,688.9z M836.9,674.9v-3.8
			c0-8.7-3.4-11.5-8.9-11.5h-7v26.9h7C833.5,686.4,836.9,683.7,836.9,674.9L836.9,674.9z"/>
		<path class="st0" d="M851.8,688.9l10.9-31.9h2.5l10.9,31.9h-2.8l-2.6-7.8h-13.3l-2.6,7.8H851.8z M858,678.6h11.7l-5.9-17.3
			L858,678.6z"/>
		<g class="st1">
			<path d="M51,264.5l-2.3-4.4c-0.2,0-0.4,0-0.7,0h-2.4v4.4h-0.9v-10.3h3.2c2.3,0,3.7,1,3.7,3c0,1.5-0.8,2.4-2.1,2.8l2.4,4.6H51z
				 M48.1,259.3c1.8,0,2.8-0.6,2.8-2.2s-1-2.2-2.8-2.2h-2.4v4.3H48.1z"/>
			<path d="M66,264.6c-2.2,0-3.7-1.4-3.7-4.6v-1.2c0-3.3,1.5-4.6,3.7-4.6c2.2,0,3.7,1.4,3.7,4.6v1.2C69.7,263.2,68.3,264.6,66,264.6
				z M63.2,260c0,2.8,1.1,3.8,2.8,3.8c1.7,0,2.8-1,2.8-3.8v-1.2c0-2.8-1.1-3.8-2.8-3.8c-1.7,0-2.8,1-2.8,3.8V260z"/>
			<path d="M84,264.6c-2.2,0-3.7-1.4-3.7-4.6v-1.2c0-3.3,1.5-4.6,3.7-4.6c2.2,0,3.7,1.4,3.7,4.6v1.2C87.7,263.2,86.3,264.6,84,264.6
				z M81.2,260c0,2.8,1.1,3.8,2.8,3.8c1.7,0,2.8-1,2.8-3.8v-1.2c0-2.8-1.1-3.8-2.8-3.8c-1.7,0-2.8,1-2.8,3.8V260z"/>
			<path d="M105,254.2v0.8h-5.2v4h4.8v0.8h-4.8v4.7h-0.9v-10.3H105z"/>
			<path d="M134.8,254.2v0.8h-5.2v3.8h4.8v0.8h-4.8v4.1h5.2v0.8h-6.1v-10.3H134.8z"/>
			<path d="M146.8,264.5H146v-10.3h0.9V264.5z"/>
		</g>
		<g class="st1">
			<path d="M158.7,264.5v-10.3h3.1c2.3,0,3.7,1.2,3.7,4.6v1.2c0,3.3-1.5,4.6-3.7,4.6H158.7z M164.7,260v-1.2c0-2.8-1.1-3.8-2.9-3.8
				h-2.3v8.7h2.3C163.6,263.7,164.7,262.9,164.7,260z"/>
		</g>
		<g class="st1">
			<path d="M175.5,264.5l3.5-10.3h0.8l3.5,10.3h-0.9l-0.9-2.5h-4.4l-0.8,2.5H175.5z M177.6,261.2h3.8l-1.9-5.6L177.6,261.2z"/>
			<path d="M198.3,261.1l3.4-6.9h0.9v10.3h-0.9v-8.4l-3,6.1h-0.8l-3-6.1v8.4H194v-10.3h0.8L198.3,261.1z"/>
			<path d="M231.3,261.1l3.4-6.9h0.9v10.3h-0.9v-8.4l-3,6.1h-0.8l-3-6.1v8.4H227v-10.3h0.8L231.3,261.1z"/>
		</g>
		<g class="st1">
			<path d="M246.1,264.5l3.5-10.3h0.8l3.5,10.3h-0.9l-0.9-2.5h-4.4l-0.8,2.5H246.1z M248.1,261.2h3.8l-1.9-5.6L248.1,261.2z"/>
		</g>
		<g class="st1">
			<path d="M263.8,254.2l2.8,4.9l2.8-4.9h1L267,260v4.5h-0.9V260l-3.4-5.8H263.8z"/>
		</g>
		<g class="st1">
			<path d="M286.5,257.3c-0.3-1.8-1.4-2.4-2.8-2.4c-1.8,0-2.8,1-2.8,3.8v1.2c0,2.8,1.1,3.8,2.8,3.8c1.5,0,2.5-0.8,2.8-2.4h0.8
				c-0.3,2.3-1.9,3.3-3.6,3.3c-2.2,0-3.7-1.3-3.7-4.6v-1.2c0-3.3,1.4-4.6,3.7-4.6c1.8,0,3.3,1,3.6,3.2H286.5z"/>
			<path d="M301.4,264.6c-2.2,0-3.7-1.4-3.7-4.6v-1.2c0-3.3,1.5-4.6,3.7-4.6c2.2,0,3.7,1.4,3.7,4.6v1.2
				C305.1,263.2,303.6,264.6,301.4,264.6z M298.6,260c0,2.8,1.1,3.8,2.8,3.8c1.7,0,2.8-1,2.8-3.8v-1.2c0-2.8-1.1-3.8-2.8-3.8
				c-1.7,0-2.8,1-2.8,3.8V260z"/>
			<path d="M322.2,257.3c-0.3-1.8-1.4-2.4-2.8-2.4c-1.8,0-2.8,1-2.8,3.8v1.2c0,2.8,1.1,3.8,2.8,3.8c1.5,0,2.5-0.8,2.8-2.4h0.8
				c-0.3,2.3-1.9,3.3-3.6,3.3c-2.2,0-3.7-1.3-3.7-4.6v-1.2c0-3.3,1.4-4.6,3.7-4.6c1.8,0,3.3,1,3.6,3.2H322.2z"/>
			<path d="M340.7,264.5l-3.8-5.5l-2.1,2.5v3h-0.9v-10.3h0.9v6l5.1-6h1.1l-3.5,4.1l4.3,6.2H340.7z"/>
			<path d="M365.8,260.4v4.1H365v-10.3h3.1c2.4,0,3.8,1.2,3.8,3.1c0,2-1.4,3.1-3.8,3.1H365.8z M368.1,259.6c2,0,2.9-0.9,2.9-2.3
				c0-1.5-0.9-2.3-2.9-2.3h-2.3v4.6H368.1z"/>
			<path d="M388.9,254.2v0.8h-5.2v3.8h4.8v0.8h-4.8v4.1h5.2v0.8h-6.1v-10.3H388.9z"/>
			<path d="M406.1,264.5l-2.3-4.4c-0.2,0-0.4,0-0.7,0h-2.4v4.4h-0.9v-10.3h3.2c2.3,0,3.7,1,3.7,3c0,1.5-0.8,2.4-2.1,2.8l2.4,4.6
				H406.1z M403.1,259.3c1.8,0,2.8-0.6,2.8-2.2s-1-2.2-2.8-2.2h-2.4v4.3H403.1z"/>
			<path d="M416.8,264.5l3.5-10.3h0.8l3.5,10.3h-0.9l-0.9-2.5h-4.4l-0.8,2.5H416.8z M418.9,261.2h3.8l-1.9-5.6L418.9,261.2z"/>
		</g>
		<g class="st1">
			<path d="M436.1,263.7h5.2v0.8h-6.1v-10.3h0.9V263.7z"/>
		</g>
		<g class="st1">
			<path d="M457.2,254.2v0.8h-3.3v9.5h-0.9V255h-3.3v-0.8H457.2z"/>
		</g>
		<g class="st1">
			<path d="M466,264.5l3.5-10.3h0.8l3.5,10.3H473l-0.9-2.5h-4.4l-0.8,2.5H466z M468.1,261.2h3.8l-1.9-5.6L468.1,261.2z"/>
		</g>
		<polygon class="st2" points="248,224.4 205.9,224.4 163.8,224.4 163.8,159.8 163.8,95.3 205.9,95.3 248,95.3 248,159.8 		"/>
		<polygon class="st3" points="162.2,224.4 103.4,224.4 44.6,224.4 44.6,159.8 44.6,95.3 103.4,95.3 162.2,95.3 162.2,159.8 		"/>
		<polygon class="st4" points="378.5,224.4 314,224.4 249.6,224.4 249.6,159.8 249.6,95.3 314,95.3 378.5,95.3 378.5,159.8 		"/>
		<polygon class="st5" points="474.1,224.7 427.1,224.7 380,224.7 380,160.1 380,95.5 427.1,95.5 474.1,95.5 474.1,160.1 		"/>
		<path class="st6" d="M187.2,155c0-8.7,0-13.8,0-17.2s-0.1-5.1-0.2-6.8c0-1.5-0.3-3-1.1-4.3c-0.9-1.1-2.2-1.8-3.7-2
			c-0.6-0.1-1.2-0.2-1.8-0.2c-0.7,0-1.4-0.1-1.9-0.1c-0.2,0-0.4,0-0.6-0.2c-0.2-0.1-0.3-0.3-0.3-0.5c0-0.3,0.2-0.6,0.4-0.7
			c0.4-0.2,0.9-0.2,1.4-0.2c2.5,0,5.5,0.1,7.9,0.2s4.3,0.2,4.6,0.2s6.1,0,12.1,0s12.1,0,13.4-0.1c1.1,0,2-0.1,2.9-0.2
			c0.7-0.1,1.3-0.2,1.9-0.3c0.3-0.1,0.5-0.2,0.8-0.3c0.2-0.1,0.5-0.2,0.8-0.2c0.2,0,0.3,0.1,0.4,0.3c0.1,0.2,0.1,0.5,0.1,0.7
			c-0.1,0.6-0.2,1.2-0.3,1.7c-0.3,1.2-0.4,2.3-0.6,3.5c-0.1,0.6-0.1,2.1-0.2,3.6s-0.2,3.1-0.3,3.8c0,0.3-0.1,0.6-0.3,0.8
			c-0.1,0.2-0.3,0.4-0.5,0.4c-0.3,0-0.6-0.1-0.7-0.4c-0.2-0.3-0.2-0.7-0.2-1.1c0-0.6,0-1.2-0.1-1.8c-0.1-0.8-0.3-1.5-0.5-2.2
			c-0.4-1-1.1-1.8-2-2.3c-1.9-0.9-3.9-1.4-5.9-1.5c-0.9-0.1-4.4-0.2-7.9-0.2s-6.8-0.1-7.4-0.1c-0.2,0-0.4,0.1-0.5,0.3
			c-0.1,0.3-0.2,0.6-0.2,0.9V159c0,0.3,0,0.6,0.1,0.9c0.1,0.2,0.3,0.3,0.5,0.3c0.7,0,4.5,0,8.4,0s8-0.1,9.2-0.2
			c1.1-0.1,2.2-0.2,3.2-0.4c0.8-0.2,1.5-0.6,2-1.1c0.4-0.4,0.7-0.8,0.9-1c0.2-0.2,0.4-0.4,0.7-0.4c0.2,0,0.3,0.1,0.4,0.2
			c0.1,0.2,0.2,0.5,0.2,0.7c-0.1,0.7-0.2,1.3-0.3,2c-0.2,1-0.4,2.4-0.6,4.2c-0.1,1.1-0.2,2.7-0.3,4.1s-0.1,2.6-0.1,3
			c0,0.5,0,0.9-0.1,1.4c-0.1,0.4-0.3,0.7-0.7,0.7c-0.2,0-0.5-0.1-0.6-0.3c-0.1-0.2-0.2-0.5-0.2-0.7c0-0.6,0-1.1-0.1-1.7
			c-0.1-0.7-0.2-1.4-0.4-2c-0.2-0.9-0.7-1.7-1.4-2.4c-1.3-0.9-2.8-1.5-4.4-1.5c-1.5-0.2-5-0.3-8.4-0.4s-6.6-0.1-7.5-0.1
			c-0.2,0-0.4,0.1-0.6,0.2c-0.1,0.2-0.2,0.3-0.2,0.6v9.8c0,1.9,0,6.1,0,10s0,7.8,0,9c0.2,3.8,0.7,6.1,2.5,7.4s5,1.7,10.4,1.7
			c1.4,0,3.4,0,5.3-0.1c1.8-0.1,3.6-0.4,5.3-1.1c1.4-0.5,2.5-1.5,3.3-2.8c0.9-1.6,1.5-3.4,1.7-5.2c0.1-0.4,0.2-0.9,0.4-1.3
			c0.1-0.2,0.4-0.4,0.6-0.4c0.3,0,0.5,0.2,0.6,0.5c0.1,0.4,0.1,0.8,0.1,1.1c0,0.4-0.2,2.6-0.5,4.9s-0.6,4.8-0.9,5.9
			c-0.4,1.4-0.8,2.2-1.7,2.5s-2.2,0.4-4.3,0.4c-8.4,0-14.5-0.2-18.8-0.3s-7-0.3-8.6-0.3c-0.3,0-2.2,0.1-4.4,0.2s-4.8,0.2-6.5,0.2
			c-0.5,0-0.9,0-1.4-0.2c-0.3-0.1-0.4-0.4-0.4-0.7c0-0.2,0.1-0.3,0.2-0.5c0.2-0.1,0.4-0.2,0.7-0.2c0.6,0,1.1-0.1,1.7-0.1
			c0.6-0.1,1.2-0.2,1.7-0.3c1.1-0.2,1.9-1,2.3-2c0.5-1.3,0.8-2.7,0.9-4.1c0.3-2.3,0.4-5.7,0.5-9.8s0.1-9,0.1-14.3L187.2,155"/>
		<path class="st6" d="M75.2,155.5c0-8.7,0-13.8,0-17.2s-0.1-5.1-0.2-6.8c0-1.5-0.3-3-1.1-4.3c-0.9-1.1-2.2-1.8-3.7-2
			c-0.6-0.1-1.2-0.2-1.8-0.2c-0.7-0.1-1.4-0.1-1.9-0.1c-0.2,0-0.4-0.1-0.6-0.2c-0.2-0.1-0.3-0.3-0.3-0.5c0-0.3,0.2-0.6,0.4-0.7
			c0.4-0.2,0.9-0.2,1.3-0.2c2.5,0,5.5,0.1,8,0.2s4.3,0.2,4.6,0.2c0.6,0,3-0.1,5.7-0.2s5.7-0.2,7.4-0.2c3.5-0.1,7.1,0.2,10.6,0.9
			c3.5,0.6,6.8,2,9.8,4c2,1.5,3.6,3.3,4.9,5.4c1.8,2.9,2.8,6.3,2.8,9.7c0,4.3-1,8.6-3,12.5c-2.7,5-6.2,9.5-10.5,13.2
			c4.6,5.8,8.7,11.2,12.6,16s7.3,9,10.6,12.4c2.3,2.5,5,4.6,8,6.2c1.7,0.9,3.6,1.5,5.6,1.8c0.9,0.1,1.8,0.2,2.7,0.3
			c0.7,0,1.3,0,1.6,0c0.3,0,0.5,0.1,0.7,0.2c0.2,0.1,0.3,0.3,0.3,0.5c0,0.3-0.2,0.6-0.6,0.7c-0.7,0.2-1.4,0.2-2.1,0.2h-8
			c-2.4,0.1-4.8-0.1-7.2-0.5c-1.6-0.3-3.2-0.8-4.7-1.6c-2.7-1.6-5-3.6-6.9-6c-2.4-2.7-4.9-6.2-8.1-10.3c-2.3-3.1-4.8-6.4-7-9.4
			s-4-5.6-5.1-7c-0.2-0.2-0.4-0.4-0.6-0.5c-0.2-0.1-0.5-0.2-0.8-0.2l-6.8-0.1l-6.8-0.1c-0.2,0-0.4,0.1-0.6,0.2
			c-0.1,0.2-0.2,0.4-0.2,0.6v2.7c0,5.3,0,10.2,0.1,14.3s0.2,7.5,0.5,9.8c0.1,1.4,0.4,2.8,1,4.1c0.7,1.2,1.9,1.9,3.3,2
			c0.8,0.1,1.8,0.2,2.7,0.3s1.8,0.1,2.3,0.1c0.2,0,0.5,0.1,0.7,0.2c0.1,0.1,0.2,0.3,0.2,0.5c0,0.3-0.2,0.5-0.4,0.6
			c-0.4,0.2-0.9,0.3-1.3,0.2c-3.1,0-6.3-0.1-8.9-0.2l-4.7-0.1l-4,0.2c-2.2,0.1-4.8,0.2-6.4,0.2c-0.5,0-0.9,0-1.3-0.2
			c-0.3-0.1-0.4-0.4-0.4-0.7c0-0.2,0.1-0.3,0.2-0.5c0.2-0.2,0.4-0.2,0.7-0.2c0.6,0,1.1-0.1,1.7-0.1c0.6-0.1,1.2-0.2,1.7-0.3
			c1.1-0.2,1.9-1,2.3-2c0.5-1.3,0.8-2.7,1-4.1c0.3-2.3,0.4-5.7,0.5-9.8s0.1-9,0.1-14.3L75.2,155.5 M84.2,165.2
			c0,0.3,0.1,0.5,0.2,0.8c0.1,0.2,0.3,0.4,0.6,0.6c1.5,0.7,3,1.1,4.6,1.3c2.3,0.3,4.7,0.5,7,0.5c1.4,0,2.8-0.1,4.2-0.4
			c1.5-0.3,2.9-0.9,4.1-1.7c2.2-1.6,3.9-3.8,4.8-6.4c1.3-3.4,2-7.1,1.9-10.8c0-6.9-1.8-12.5-5.2-16.3s-8.1-5.9-14.1-5.9
			c-1.7,0-3.2,0.1-4.6,0.2c-1,0.1-1.9,0.2-2.9,0.4c-0.3,0.1-0.5,0.3-0.7,0.5c-0.2,0.2-0.2,0.5-0.2,0.8L84.2,165.2L84.2,165.2z"/>
		<path class="st6" d="M355.9,193.4c0.2,2.3,0.6,4.6,1.4,6.8c0.9,2.3,2.2,4.2,4.6,5c1.4,0.4,2.9,0.7,4.4,0.9
			c0.9,0.1,1.9,0.1,2.8,0.1c0.2,0,0.4,0,0.6,0.1c0.2,0.1,0.3,0.3,0.2,0.4c0,0.3-0.2,0.6-0.7,0.8c-0.5,0.2-1.1,0.3-1.7,0.2
			c-1.2,0-4.8-0.1-8.7-0.2s-7.9-0.3-9.9-0.5c-0.9,0-1.7-0.2-2.5-0.4c-0.5-0.2-0.6-0.4-0.6-0.7c0-0.2,0.1-0.4,0.2-0.5
			c0.2-0.1,0.4-0.2,0.6-0.3c0.3,0,0.4-0.6,0.5-1.3c0.1-0.9,0-1.8-0.1-2.7l-2.7-28.7l-2.7-28.7h-0.3L328,172.7l-13.6,28.9
			c-1.2,2.4-1.8,3.9-2.3,4.8s-0.8,1.1-1.3,1.1s-0.7-0.3-1.2-1.1s-1.2-2.1-2.2-4.1c-1.4-2.7-4.6-8.9-7.4-14.5s-5.4-10.7-5.6-11.3
			c-0.5-1-3.9-8.2-7.3-15.5s-6.8-14.7-7.4-16.2h-0.4l-2.2,25.8l-2.2,25.8c0,0.9-0.1,1.8-0.1,2.8s0,1.9,0,2.9c0,0.8,0.3,1.6,0.8,2.2
			c0.5,0.6,1.3,1.1,2.1,1.2c0.8,0.2,1.7,0.3,2.6,0.4c0.7,0.1,1.3,0.1,1.6,0.1c0.2,0,0.4,0.1,0.6,0.1c0.2,0.1,0.3,0.2,0.3,0.4
			c0,0.3-0.2,0.7-0.5,0.8c-0.5,0.2-1,0.2-1.5,0.2c-2,0-4.4-0.1-6.4-0.2s-3.5-0.2-4-0.2s-2.1,0.1-3.9,0.2s-3.9,0.2-5.4,0.2
			c-0.5,0-0.9-0.1-1.4-0.2c-0.3-0.1-0.5-0.4-0.5-0.8c0-0.2,0.1-0.3,0.3-0.4c0.2-0.1,0.5-0.2,0.8-0.1c0.4,0,0.9,0,1.4,0
			c0.7-0.1,1.3-0.2,2-0.3c1.7-0.3,3-1.6,3.4-3.3c0.5-1.9,0.9-3.9,1-5.9l4-36.2l4-36.2c0.1-0.5,0.2-1,0.5-1.5
			c0.1-0.3,0.4-0.5,0.8-0.5c0.3,0,0.7,0.1,0.9,0.4c0.3,0.4,0.6,0.8,0.8,1.3l17,35l17,35l16.3-34.9l16.3-34.9
			c0.2-0.5,0.4-0.9,0.7-1.3c0.2-0.3,0.6-0.5,1-0.5c0.4,0,0.7,0.2,0.9,0.7c0.3,0.7,0.4,1.5,0.5,2.3l3.7,34.1l3.7,34.1"/>
		<path class="st6" d="M411.1,155.3c0-8.7,0-13.8,0-17.2s-0.1-5.1-0.2-6.8c0-1.5-0.3-3-1.1-4.3c-0.9-1.1-2.2-1.8-3.7-2
			c-0.6-0.1-1.2-0.2-1.9-0.2c-0.7-0.1-1.4-0.1-1.9-0.1c-0.2,0-0.4-0.1-0.6-0.2c-0.2-0.1-0.3-0.3-0.3-0.5c0-0.3,0.2-0.6,0.4-0.7
			c0.4-0.2,0.9-0.2,1.4-0.2c2.5,0,5.5,0.1,8,0.2s4.3,0.2,4.6,0.2c0.6,0,3-0.1,5.7-0.2s5.7-0.2,7.4-0.2c3.5-0.1,7.1,0.2,10.6,0.9
			c3.5,0.6,6.8,2,9.8,4c2,1.5,3.6,3.3,4.9,5.4c1.8,2.9,2.8,6.3,2.8,9.7c-0.1,5.1-1,10.1-2.8,14.9c-2,5.1-5.1,9.7-9.8,11.5
			c-1.1,0.6-2.3,1.1-3.5,1.4c-2.1,0.5-4.2,0.7-6.3,0.6c-2.9,0-6.3,0-9-0.1s-4.6-0.1-4.6-0.1c-0.2,0-0.4,0.1-0.6,0.2
			c-0.1,0.2-0.2,0.4-0.2,0.6v2.7c0,5.3,0,10.2,0.1,14.3s0.2,7.5,0.5,9.8c0.1,1.4,0.4,2.8,1,4.1c0.7,1.2,1.9,1.9,3.3,2
			c0.8,0.1,1.8,0.2,2.7,0.3s1.8,0.1,2.3,0.1c0.3,0,0.5,0.1,0.7,0.2c0.1,0.1,0.2,0.3,0.2,0.5c0,0.3-0.2,0.5-0.4,0.6
			c-0.4,0.2-0.9,0.3-1.4,0.2c-3,0-6.3-0.1-8.9-0.2l-4.8-0.2l-4,0.2c-2.2,0.1-4.8,0.2-6.4,0.2c-0.5,0-0.9,0-1.4-0.2
			c-0.3-0.1-0.4-0.4-0.4-0.7c0-0.2,0.1-0.3,0.2-0.5c0.2-0.2,0.4-0.2,0.7-0.2c0.6,0,1.1-0.1,1.7-0.1c0.6-0.1,1.2-0.2,1.7-0.3
			c1.1-0.2,1.9-1,2.3-2c0.5-1.3,0.8-2.7,1-4.1c0.3-2.3,0.4-5.7,0.5-9.8s0.1-9,0.1-14.3L411.1,155.3 M420,165c0,0.3,0.1,0.5,0.2,0.8
			c0.1,0.2,0.4,0.4,0.6,0.6c1.5,0.7,3,1.1,4.6,1.3c2.3,0.3,4.7,0.5,7,0.5c1.4,0,2.8-0.1,4.2-0.4c1.5-0.3,2.9-0.9,4.1-1.7
			c2.2-1.6,3.9-3.8,4.9-6.4c1.3-3.4,2-7.1,1.9-10.7c0-6.9-1.8-12.5-5.2-16.3s-8.1-5.9-14.1-5.9c-1.7,0-3.2,0.1-4.6,0.2
			c-1,0.1-1.9,0.2-2.9,0.4c-0.6,0.2-0.9,0.7-0.9,1.3L420,165L420,165z"/>
		<g class="st1">
			<path d="M667,359.8l-2.3-4.4c-0.2,0-0.4,0-0.7,0h-2.4v4.4h-0.9v-10.3h3.2c2.3,0,3.7,1,3.7,3c0,1.5-0.8,2.4-2.1,2.8l2.4,4.6H667z
				 M664.1,354.6c1.8,0,2.8-0.6,2.8-2.2s-1-2.2-2.8-2.2h-2.4v4.3H664.1z"/>
			<path d="M682,359.9c-2.2,0-3.7-1.4-3.7-4.6V354c0-3.3,1.5-4.6,3.7-4.6c2.2,0,3.7,1.4,3.7,4.6v1.2
				C685.7,358.5,684.3,359.9,682,359.9z M679.2,355.3c0,2.8,1.1,3.8,2.8,3.8c1.7,0,2.8-1,2.8-3.8V354c0-2.8-1.1-3.8-2.8-3.8
				c-1.7,0-2.8,1-2.8,3.8V355.3z"/>
			<path d="M700,359.9c-2.2,0-3.7-1.4-3.7-4.6V354c0-3.3,1.5-4.6,3.7-4.6c2.2,0,3.7,1.4,3.7,4.6v1.2
				C703.7,358.5,702.3,359.9,700,359.9z M697.2,355.3c0,2.8,1.1,3.8,2.8,3.8c1.7,0,2.8-1,2.8-3.8V354c0-2.8-1.1-3.8-2.8-3.8
				c-1.7,0-2.8,1-2.8,3.8V355.3z"/>
			<path d="M721,349.5v0.8h-5.2v4h4.8v0.8h-4.8v4.7h-0.9v-10.3H721z"/>
			<path d="M750.8,349.5v0.8h-5.2v3.8h4.8v0.8h-4.8v4.1h5.2v0.8h-6.1v-10.3H750.8z"/>
			<path d="M762.8,359.8H762v-10.3h0.9V359.8z"/>
		</g>
		<g class="st1">
			<path d="M774.7,359.8v-10.3h3.1c2.3,0,3.7,1.2,3.7,4.6v1.2c0,3.3-1.5,4.6-3.7,4.6H774.7z M780.7,355.3V354c0-2.8-1.1-3.8-2.9-3.8
				h-2.3v8.7h2.3C779.6,359,780.7,358.1,780.7,355.3z"/>
		</g>
		<g class="st1">
			<path d="M791.5,359.8l3.5-10.3h0.8l3.5,10.3h-0.9l-0.9-2.5h-4.4l-0.8,2.5H791.5z M793.6,356.5h3.8l-1.9-5.6L793.6,356.5z"/>
			<path d="M814.3,356.3l3.4-6.9h0.9v10.3h-0.9v-8.4l-3,6.1h-0.8l-3-6.1v8.4H810v-10.3h0.8L814.3,356.3z"/>
			<path d="M847.3,356.3l3.4-6.9h0.9v10.3h-0.9v-8.4l-3,6.1h-0.8l-3-6.1v8.4H843v-10.3h0.8L847.3,356.3z"/>
		</g>
		<g class="st1">
			<path d="M862.1,359.8l3.5-10.3h0.8l3.5,10.3h-0.9l-0.9-2.5h-4.3l-0.8,2.5H862.1z M864.1,356.5h3.8l-1.9-5.6L864.1,356.5z"/>
		</g>
		<g class="st1">
			<path d="M879.8,349.5l2.8,4.9l2.8-4.9h1l-3.4,5.8v4.5h-0.9v-4.5l-3.4-5.8H879.8z"/>
		</g>
		<g class="st1">
			<path d="M902.5,352.6c-0.3-1.8-1.4-2.4-2.8-2.4c-1.8,0-2.8,1-2.8,3.8v1.2c0,2.8,1.1,3.8,2.8,3.8c1.5,0,2.5-0.8,2.8-2.4h0.8
				c-0.3,2.3-1.9,3.3-3.6,3.3c-2.2,0-3.7-1.3-3.7-4.6V354c0-3.3,1.4-4.6,3.7-4.6c1.8,0,3.3,1,3.6,3.2H902.5z"/>
			<path d="M917.4,359.9c-2.2,0-3.7-1.4-3.7-4.6V354c0-3.3,1.5-4.6,3.7-4.6s3.7,1.4,3.7,4.6v1.2
				C921.1,358.5,919.6,359.9,917.4,359.9z M914.6,355.3c0,2.8,1.1,3.8,2.8,3.8s2.8-1,2.8-3.8V354c0-2.8-1.1-3.8-2.8-3.8
				s-2.8,1-2.8,3.8V355.3z"/>
			<path d="M938.2,352.6c-0.3-1.8-1.4-2.4-2.8-2.4c-1.8,0-2.8,1-2.8,3.8v1.2c0,2.8,1,3.8,2.8,3.8c1.5,0,2.5-0.8,2.8-2.4h0.8
				c-0.3,2.3-1.9,3.3-3.6,3.3c-2.2,0-3.7-1.3-3.7-4.6V354c0-3.3,1.4-4.6,3.7-4.6c1.8,0,3.3,1,3.6,3.2H938.2z"/>
			<path d="M956.7,359.8l-3.8-5.5l-2.1,2.5v3h-0.9v-10.3h0.9v6l5.1-6h1.1l-3.5,4.1l4.3,6.2H956.7z"/>
			<path d="M981.8,355.7v4.1H981v-10.3h3.1c2.4,0,3.8,1.2,3.8,3.1c0,2-1.4,3.1-3.8,3.1H981.8z M984.1,354.9c2,0,2.9-0.9,2.9-2.3
				c0-1.5-0.9-2.3-2.9-2.3h-2.3v4.6H984.1z"/>
			<path d="M1004.9,349.5v0.8h-5.2v3.8h4.8v0.8h-4.8v4.1h5.2v0.8h-6.1v-10.3H1004.9z"/>
			<path d="M1022.1,359.8l-2.3-4.4c-0.2,0-0.4,0-0.7,0h-2.4v4.4h-0.9v-10.3h3.2c2.3,0,3.7,1,3.7,3c0,1.5-0.8,2.4-2.1,2.8l2.4,4.6
				H1022.1z M1019.1,354.6c1.8,0,2.8-0.6,2.8-2.2s-1-2.2-2.8-2.2h-2.4v4.3H1019.1z"/>
			<path d="M1032.8,359.8l3.5-10.3h0.8l3.5,10.3h-0.9l-0.9-2.5h-4.3l-0.8,2.5H1032.8z M1034.9,356.5h3.8l-1.9-5.6L1034.9,356.5z"/>
		</g>
		<g class="st1">
			<path d="M1052.1,359h5.2v0.8h-6.1v-10.3h0.9V359z"/>
		</g>
		<g class="st1">
			<path d="M1073.2,349.5v0.8h-3.3v9.5h-0.9v-9.5h-3.3v-0.8H1073.2z"/>
		</g>
		<g class="st1">
			<path d="M1082,359.8l3.5-10.3h0.8l3.5,10.3h-0.9l-0.9-2.5h-4.3l-0.8,2.5H1082z M1084.1,356.5h3.8l-1.9-5.6L1084.1,356.5z"/>
		</g>
		<line class="st7" x1="725.6" y1="155.2" x2="1036.1" y2="155.2"/>
		<line class="st7" x1="880.9" y1="0" x2="880.9" y2="310.5"/>
		<g class="st1">
			<path d="M942.1,251.7v35.2h-7.5V198h27c20.5,0,32.3,10,32.3,26.9c0,16.7-11.7,26.8-32.3,26.8H942.1z M961.7,244.8
				c17.1,0,24.9-7.3,24.9-19.8c0-12.6-7.7-20-24.9-20h-19.6v39.8H961.7z"/>
		</g>
		<path d="M794.4,244.4l22.4-46.6h7.3v89.8h-7.5v-73.4l-19,40.1h-6.7l-18.8-40v73.3h-7.5v-89.8h7.2L794.4,244.4z"/>
		<path d="M815.2,111.4l-17-37.6c-2,0.2-3.9,0.3-5.9,0.3H772v37.7h-7.5V23h27.7c20.1,0,31.7,8.8,31.7,25.6c0,12.6-6.6,20.7-18.3,24
			l17.9,38.9L815.2,111.4z M792.2,67.1c15.6,0,24.2-5.3,24.2-18.5s-8.6-18.7-24.2-18.7H772v37.2L792.2,67.1z"/>
		<path d="M994.1,23.4v7h-51.9v32.4h48.1v7h-48.1v35.6h51.9v7h-59.4v-89H994.1z"/>
		<g class="st1">
			<path d="M1199,348.8l-2.3-4.4c-0.2,0-0.4,0-0.7,0h-2.4v4.4h-0.9v-10.3h3.2c2.3,0,3.7,1,3.7,3c0,1.5-0.8,2.4-2.1,2.8l2.4,4.6H1199
				z M1196.1,343.6c1.8,0,2.8-0.6,2.8-2.2s-1-2.2-2.8-2.2h-2.4v4.3H1196.1z"/>
			<path d="M1214,348.9c-2.2,0-3.7-1.4-3.7-4.6V343c0-3.3,1.5-4.6,3.7-4.6s3.7,1.4,3.7,4.6v1.2
				C1217.7,347.5,1216.3,348.9,1214,348.9z M1211.2,344.2c0,2.8,1.1,3.8,2.8,3.8c1.7,0,2.8-1,2.8-3.8V343c0-2.8-1.1-3.8-2.8-3.8
				c-1.7,0-2.8,1-2.8,3.8V344.2z"/>
			<path d="M1232,348.9c-2.2,0-3.7-1.4-3.7-4.6V343c0-3.3,1.5-4.6,3.7-4.6c2.2,0,3.7,1.4,3.7,4.6v1.2
				C1235.7,347.5,1234.3,348.9,1232,348.9z M1229.2,344.2c0,2.8,1.1,3.8,2.8,3.8s2.8-1,2.8-3.8V343c0-2.8-1.1-3.8-2.8-3.8
				s-2.8,1-2.8,3.8V344.2z"/>
			<path d="M1253,338.4v0.8h-5.2v4h4.8v0.8h-4.8v4.7h-0.9v-10.3H1253z"/>
			<path d="M1282.8,338.4v0.8h-5.2v3.8h4.8v0.8h-4.8v4.1h5.2v0.8h-6.1v-10.3H1282.8z"/>
			<path d="M1294.8,348.8h-0.9v-10.3h0.9V348.8z"/>
		</g>
		<g class="st1">
			<path d="M1306.7,348.8v-10.3h3.1c2.3,0,3.8,1.2,3.8,4.6v1.2c0,3.3-1.5,4.6-3.8,4.6H1306.7z M1312.7,344.2V343
				c0-2.8-1.1-3.8-2.9-3.8h-2.3v8.7h2.3C1311.6,348,1312.7,347.1,1312.7,344.2z"/>
		</g>
		<g class="st1">
			<path d="M1323.5,348.8l3.5-10.3h0.8l3.5,10.3h-0.9l-0.9-2.5h-4.4l-0.8,2.5H1323.5z M1325.6,345.5h3.8l-1.9-5.6L1325.6,345.5z"/>
			<path d="M1346.3,345.3l3.4-6.9h0.9v10.3h-0.9v-8.4l-3,6.1h-0.8l-3-6.1v8.4h-0.9v-10.3h0.8L1346.3,345.3z"/>
			<path d="M1379.3,345.3l3.4-6.9h0.9v10.3h-0.9v-8.4l-3,6.1h-0.8l-3-6.1v8.4h-0.9v-10.3h0.8L1379.3,345.3z"/>
		</g>
		<g class="st1">
			<path d="M1394.1,348.8l3.5-10.3h0.8l3.5,10.3h-0.9l-0.9-2.5h-4.3l-0.8,2.5H1394.1z M1396.1,345.5h3.8l-1.9-5.6L1396.1,345.5z"/>
		</g>
		<g class="st1">
			<path d="M1411.8,338.4l2.8,4.9l2.8-4.9h1l-3.4,5.8v4.5h-0.9v-4.5l-3.4-5.8H1411.8z"/>
		</g>
		<g class="st1">
			<path d="M1434.5,341.6c-0.3-1.8-1.4-2.4-2.8-2.4c-1.8,0-2.8,1-2.8,3.8v1.2c0,2.8,1.1,3.8,2.8,3.8c1.5,0,2.5-0.8,2.8-2.4h0.8
				c-0.3,2.3-1.9,3.3-3.6,3.3c-2.2,0-3.7-1.3-3.7-4.6V343c0-3.3,1.4-4.6,3.7-4.6c1.8,0,3.3,1,3.6,3.2H1434.5z"/>
			<path d="M1449.4,348.9c-2.2,0-3.7-1.4-3.7-4.6V343c0-3.3,1.5-4.6,3.7-4.6s3.7,1.4,3.7,4.6v1.2
				C1453.1,347.5,1451.6,348.9,1449.4,348.9z M1446.6,344.2c0,2.8,1.1,3.8,2.8,3.8c1.7,0,2.8-1,2.8-3.8V343c0-2.8-1.1-3.8-2.8-3.8
				c-1.7,0-2.8,1-2.8,3.8V344.2z"/>
			<path d="M1470.2,341.6c-0.3-1.8-1.4-2.4-2.8-2.4c-1.8,0-2.8,1-2.8,3.8v1.2c0,2.8,1.1,3.8,2.8,3.8c1.5,0,2.5-0.8,2.8-2.4h0.8
				c-0.3,2.3-1.9,3.3-3.6,3.3c-2.2,0-3.7-1.3-3.7-4.6V343c0-3.3,1.4-4.6,3.7-4.6c1.8,0,3.3,1,3.6,3.2H1470.2z"/>
			<path d="M1488.7,348.8l-3.8-5.5l-2.1,2.5v3h-0.9v-10.3h0.9v6l5.1-6h1.1l-3.5,4.1l4.3,6.2H1488.7z"/>
			<path d="M1513.8,344.7v4.1h-0.9v-10.3h3.1c2.4,0,3.8,1.2,3.8,3.1c0,2-1.4,3.1-3.8,3.1H1513.8z M1516.1,343.9c2,0,2.9-0.9,2.9-2.3
				c0-1.5-0.9-2.3-2.9-2.3h-2.3v4.6H1516.1z"/>
			<path d="M1536.9,338.4v0.8h-5.2v3.8h4.8v0.8h-4.8v4.1h5.2v0.8h-6.1v-10.3H1536.9z"/>
			<path d="M1554.1,348.8l-2.3-4.4c-0.2,0-0.5,0-0.7,0h-2.4v4.4h-0.9v-10.3h3.2c2.3,0,3.7,1,3.7,3c0,1.5-0.8,2.4-2.1,2.8l2.4,4.6
				H1554.1z M1551.1,343.6c1.8,0,2.8-0.6,2.8-2.2s-1-2.2-2.8-2.2h-2.4v4.3H1551.1z"/>
			<path d="M1564.8,348.8l3.5-10.3h0.8l3.5,10.3h-0.9l-0.9-2.5h-4.3l-0.8,2.5H1564.8z M1566.9,345.5h3.8l-1.9-5.6L1566.9,345.5z"/>
		</g>
		<g class="st1">
			<path d="M1584.1,348h5.2v0.8h-6.1v-10.3h0.9V348z"/>
		</g>
		<g class="st1">
			<path d="M1605.2,338.4v0.8h-3.3v9.5h-0.9v-9.5h-3.3v-0.8H1605.2z"/>
		</g>
		<g class="st1">
			<path d="M1614,348.8l3.5-10.3h0.8l3.5,10.3h-0.9l-0.9-2.5h-4.3l-0.8,2.5H1614z M1616.1,345.5h3.8l-1.9-5.6L1616.1,345.5z"/>
		</g>
		<line class="st8" x1="1409.6" y1="11.4" x2="1409.6" y2="290.9"/>
		<g class="st1">
			<path d="M1462.3,253.7V291h-7.9v-94.3h28.7c21.7,0,34.3,10.7,34.3,28.6c0,17.8-12.4,28.4-34.3,28.4H1462.3z M1483.1,246.3
				c18.2,0,26.4-7.8,26.4-21c0-13.4-8.2-21.2-26.4-21.2h-20.8v42.2H1483.1z"/>
		</g>
		<path d="M1332.9,246l23.8-49.4h7.8v94.3h-7.9v-76.9l-20.2,42.6h-7.1l-19.9-42.5v76.8h-7.9v-94.2h7.7L1332.9,246z"/>
		<path d="M1355,104.8L1336.9,65c-2.1,0.2-4.2,0.3-6.3,0.3h-21.4v40h-7.9V11h29.4c21.3,0,33.6,9.3,33.6,27.2c0,13.4-7,22-19.4,25.4
			l19,41.2L1355,104.8z M1330.6,57.8c16.5,0,25.7-5.6,25.7-19.7s-9.2-19.8-25.7-19.8h-21.4v39.5L1330.6,57.8z"/>
		<path d="M1517.5,11.5v7.4h-55.1v34.4h51v7.4h-51v37.7h55.1v7.4h-63V11.5H1517.5z"/>
		<line class="st8" x1="1517.8" y1="150.9" x2="1301.3" y2="150.9"/>
		<line class="st9" x1="299.9" y1="579.5" x2="139.9" y2="739.6"/>
		<line class="st9" x1="299.5" y1="739.8" x2="139.4" y2="579.7"/>
		<path d="M127.9,706.5l-18.1-40c-2.1,0.2-4.2,0.3-6.3,0.3H82V707h-8v-94.6h29.5c21.4,0,33.7,9.3,33.7,27.3c0,13.4-7,22.1-19.5,25.5
			l19.1,41.4H127.9z M103.5,659.4c16.6,0,25.8-5.6,25.8-19.7s-9.2-19.9-25.8-19.9H82v39.6H103.5z"/>
		<path d="M252,489.4v7.4h-55.3v34.5h51.2v7.4h-51.2v37.8H252v7.4h-63.2v-94.6H252z"/>
		<path d="M219.7,783.3l23.8-49.6h7.8v94.6h-7.9v-77.2l-20.3,42.7H216l-20-42.6v77h-8v-94.5h7.7L219.7,783.3z"/>
		<g class="st1">
			<path d="M314.5,669.1v37.4h-8V612h28.8c21.8,0,34.4,10.7,34.4,28.7c0,17.8-12.5,28.5-34.4,28.5H314.5z M335.4,661.7
				c18.2,0,26.5-7.8,26.5-21.1c0-13.4-8.2-21.2-26.5-21.2h-20.8v42.4H335.4z"/>
		</g>
		<g class="st1">
			<path d="M7.6,898.1l-2.3-4.4c-0.2,0-0.4,0-0.7,0H2.2v4.4H1.4v-10.3h3.2c2.3,0,3.7,1,3.7,3c0,1.5-0.8,2.4-2.1,2.8l2.4,4.6H7.6z
				 M4.6,892.9c1.8,0,2.8-0.6,2.8-2.2s-1-2.2-2.8-2.2H2.2v4.3H4.6z"/>
			<path d="M22.6,898.2c-2.2,0-3.7-1.4-3.7-4.6v-1.2c0-3.3,1.5-4.6,3.7-4.6c2.2,0,3.7,1.4,3.7,4.6v1.2
				C26.2,896.8,24.8,898.2,22.6,898.2z M19.8,893.5c0,2.8,1.1,3.8,2.8,3.8c1.7,0,2.8-1,2.8-3.8v-1.2c0-2.8-1.1-3.8-2.8-3.8
				c-1.7,0-2.8,1-2.8,3.8V893.5z"/>
			<path d="M40.6,898.2c-2.2,0-3.7-1.4-3.7-4.6v-1.2c0-3.3,1.5-4.6,3.7-4.6c2.2,0,3.7,1.4,3.7,4.6v1.2
				C44.2,896.8,42.8,898.2,40.6,898.2z M37.8,893.5c0,2.8,1.1,3.8,2.8,3.8c1.7,0,2.8-1,2.8-3.8v-1.2c0-2.8-1.1-3.8-2.8-3.8
				c-1.7,0-2.8,1-2.8,3.8V893.5z"/>
			<path d="M61.5,887.7v0.8h-5.2v4H61v0.8h-4.8v4.7h-0.9v-10.3H61.5z"/>
			<path d="M91.3,887.7v0.8h-5.2v3.8h4.8v0.8h-4.8v4.1h5.2v0.8h-6.1v-10.3H91.3z"/>
			<path d="M103.4,898.1h-0.9v-10.3h0.9V898.1z"/>
		</g>
		<g class="st1">
			<path d="M115.2,898.1v-10.3h3.1c2.3,0,3.7,1.2,3.7,4.6v1.2c0,3.3-1.5,4.6-3.7,4.6H115.2z M121.2,893.5v-1.2
				c0-2.8-1.1-3.8-2.9-3.8h-2.3v8.7h2.3C120.1,897.3,121.2,896.4,121.2,893.5z"/>
		</g>
		<g class="st1">
			<path d="M132.1,898.1l3.5-10.3h0.8l3.5,10.3H139l-0.9-2.5h-4.4l-0.8,2.5H132.1z M134.1,894.8h3.8l-1.9-5.6L134.1,894.8z"/>
			<path d="M154.8,894.6l3.4-6.9h0.9v10.3h-0.9v-8.4l-3,6.1h-0.8l-3-6.1v8.4h-0.9v-10.3h0.8L154.8,894.6z"/>
			<path d="M187.8,894.6l3.4-6.9h0.9v10.3h-0.9v-8.4l-3,6.1h-0.8l-3-6.1v8.4h-0.9v-10.3h0.8L187.8,894.6z"/>
		</g>
		<g class="st1">
			<path d="M202.6,898.1l3.5-10.3h0.8l3.5,10.3h-0.9l-0.9-2.5h-4.4l-0.8,2.5H202.6z M204.7,894.8h3.8l-1.9-5.6L204.7,894.8z"/>
		</g>
		<g class="st1">
			<path d="M220.3,887.7l2.8,4.9l2.8-4.9h1l-3.4,5.8v4.5h-0.9v-4.5l-3.4-5.8H220.3z"/>
		</g>
		<g class="st1">
			<path d="M243,890.9c-0.3-1.8-1.4-2.4-2.8-2.4c-1.8,0-2.8,1-2.8,3.8v1.2c0,2.8,1.1,3.8,2.8,3.8c1.5,0,2.5-0.8,2.8-2.4h0.8
				c-0.3,2.3-1.9,3.3-3.6,3.3c-2.2,0-3.7-1.3-3.7-4.6v-1.2c0-3.3,1.4-4.6,3.7-4.6c1.8,0,3.3,1,3.6,3.2H243z"/>
			<path d="M257.9,898.2c-2.2,0-3.7-1.4-3.7-4.6v-1.2c0-3.3,1.5-4.6,3.7-4.6c2.2,0,3.7,1.4,3.7,4.6v1.2
				C261.6,896.8,260.1,898.2,257.9,898.2z M255.1,893.5c0,2.8,1.1,3.8,2.8,3.8c1.7,0,2.8-1,2.8-3.8v-1.2c0-2.8-1.1-3.8-2.8-3.8
				c-1.7,0-2.8,1-2.8,3.8V893.5z"/>
			<path d="M278.7,890.9c-0.3-1.8-1.4-2.4-2.8-2.4c-1.8,0-2.8,1-2.8,3.8v1.2c0,2.8,1.1,3.8,2.8,3.8c1.5,0,2.5-0.8,2.8-2.4h0.8
				c-0.3,2.3-1.9,3.3-3.6,3.3c-2.2,0-3.7-1.3-3.7-4.6v-1.2c0-3.3,1.4-4.6,3.7-4.6c1.8,0,3.3,1,3.6,3.2H278.7z"/>
			<path d="M297.2,898.1l-3.8-5.5l-2.1,2.5v3h-0.9v-10.3h0.9v6l5.1-6h1.1l-3.5,4.1l4.3,6.2H297.2z"/>
			<path d="M322.4,894v4.1h-0.9v-10.3h3.1c2.4,0,3.8,1.2,3.8,3.1c0,2-1.4,3.1-3.8,3.1H322.4z M324.6,893.2c2,0,2.9-0.9,2.9-2.3
				c0-1.5-0.9-2.3-2.9-2.3h-2.3v4.6H324.6z"/>
			<path d="M345.4,887.7v0.8h-5.2v3.8h4.8v0.8h-4.8v4.1h5.2v0.8h-6.1v-10.3H345.4z"/>
			<path d="M362.7,898.1l-2.3-4.4c-0.2,0-0.4,0-0.7,0h-2.4v4.4h-0.9v-10.3h3.2c2.3,0,3.7,1,3.7,3c0,1.5-0.8,2.4-2.1,2.8l2.4,4.6
				H362.7z M359.7,892.9c1.8,0,2.8-0.6,2.8-2.2s-1-2.2-2.8-2.2h-2.4v4.3H359.7z"/>
			<path d="M373.3,898.1l3.5-10.3h0.8l3.5,10.3h-0.9l-0.9-2.5h-4.4l-0.8,2.5H373.3z M375.4,894.8h3.8l-1.9-5.6L375.4,894.8z"/>
		</g>
		<g class="st1">
			<path d="M392.6,897.3h5.2v0.8h-6.1v-10.3h0.9V897.3z"/>
		</g>
		<g class="st1">
			<path d="M413.7,887.7v0.8h-3.3v9.5h-0.9v-9.5h-3.3v-0.8H413.7z"/>
		</g>
		<g class="st1">
			<path d="M422.6,898.1l3.5-10.3h0.8l3.5,10.3h-0.9l-0.9-2.5h-4.4l-0.8,2.5H422.6z M424.6,894.8h3.8l-1.9-5.6L424.6,894.8z"/>
		</g>
		<g class="st1">
			<path d="M1258.1,771.7l-2.1-4.1c-0.2,0-0.4,0-0.6,0h-2.2v4.1h-0.8v-9.7h3c2.2,0,3.4,1,3.4,2.8c0,1.4-0.7,2.3-2,2.6l2.2,4.3
				H1258.1z M1255.3,766.9c1.7,0,2.6-0.6,2.6-2c0-1.4-0.9-2-2.6-2h-2.2v4H1255.3z"/>
			<path d="M1271.8,771.8c-2.1,0-3.4-1.3-3.4-4.3v-1.1c0-3,1.4-4.3,3.4-4.3s3.4,1.3,3.4,4.3v1.1
				C1275.3,770.5,1273.9,771.8,1271.8,771.8z M1269.2,767.5c0,2.6,1,3.6,2.6,3.6s2.6-1,2.6-3.6v-1.1c0-2.6-1-3.6-2.6-3.6
				s-2.6,1-2.6,3.6V767.5z"/>
			<path d="M1288.3,771.8c-2.1,0-3.4-1.3-3.4-4.3v-1.1c0-3,1.4-4.3,3.4-4.3s3.4,1.3,3.4,4.3v1.1
				C1291.8,770.5,1290.4,771.8,1288.3,771.8z M1285.7,767.5c0,2.6,1,3.6,2.6,3.6c1.6,0,2.6-1,2.6-3.6v-1.1c0-2.6-1-3.6-2.6-3.6
				c-1.6,0-2.6,1-2.6,3.6V767.5z"/>
			<path d="M1307.6,762.1v0.8h-4.9v3.8h4.5v0.8h-4.5v4.4h-0.8v-9.7H1307.6z"/>
			<path d="M1334.9,762.1v0.8h-4.9v3.5h4.5v0.8h-4.5v3.9h4.9v0.8h-5.7v-9.7H1334.9z"/>
			<path d="M1345.8,771.7h-0.8v-9.7h0.8V771.7z"/>
		</g>
		<g class="st1">
			<path d="M1356.2,771.7v-9.7h2.9c2.1,0,3.5,1.1,3.5,4.3v1.1c0,3.1-1.4,4.3-3.5,4.3H1356.2z M1361.9,767.5v-1.1
				c0-2.6-1-3.5-2.7-3.5h-2.1v8.2h2.1C1360.8,771,1361.9,770.2,1361.9,767.5z"/>
		</g>
		<g class="st1">
			<path d="M1371.6,771.7l3.3-9.7h0.8l3.3,9.7h-0.9l-0.8-2.4h-4.1l-0.8,2.4H1371.6z M1373.5,768.6h3.6l-1.8-5.3L1373.5,768.6z"/>
			<path d="M1392.6,768.5l3.2-6.4h0.8v9.7h-0.8v-7.9l-2.8,5.7h-0.7l-2.8-5.7v7.9h-0.8v-9.7h0.8L1392.6,768.5z"/>
			<path d="M1422.8,768.5l3.2-6.4h0.8v9.7h-0.8v-7.9l-2.8,5.7h-0.7l-2.8-5.7v7.9h-0.8v-9.7h0.8L1422.8,768.5z"/>
		</g>
		<g class="st1">
			<path d="M1436.1,771.7l3.3-9.7h0.8l3.3,9.7h-0.9l-0.8-2.4h-4.1l-0.8,2.4H1436.1z M1438.1,768.6h3.6l-1.8-5.3L1438.1,768.6z"/>
		</g>
		<g class="st1">
			<path d="M1452.3,762.1l2.6,4.5l2.6-4.5h1l-3.1,5.4v4.2h-0.8v-4.2l-3.1-5.4H1452.3z"/>
		</g>
		<g class="st1">
			<path d="M1473.1,765c-0.3-1.6-1.3-2.3-2.6-2.3c-1.7,0-2.6,1-2.6,3.6v1.1c0,2.6,1,3.6,2.6,3.6c1.4,0,2.3-0.7,2.6-2.3h0.8
				c-0.3,2.2-1.7,3-3.4,3c-2.1,0-3.4-1.2-3.4-4.3v-1.1c0-3.1,1.3-4.3,3.4-4.3c1.7,0,3.1,0.9,3.4,3H1473.1z"/>
			<path d="M1486.8,771.8c-2.1,0-3.4-1.3-3.4-4.3v-1.1c0-3,1.4-4.3,3.4-4.3s3.4,1.3,3.4,4.3v1.1
				C1490.2,770.5,1488.9,771.8,1486.8,771.8z M1484.2,767.5c0,2.6,1,3.6,2.6,3.6s2.6-1,2.6-3.6v-1.1c0-2.6-1-3.6-2.6-3.6
				s-2.6,1-2.6,3.6V767.5z"/>
			<path d="M1505.9,765c-0.3-1.6-1.3-2.3-2.6-2.3c-1.7,0-2.6,1-2.6,3.6v1.1c0,2.6,1,3.6,2.6,3.6c1.4,0,2.3-0.7,2.6-2.3h0.8
				c-0.3,2.2-1.7,3-3.4,3c-2.1,0-3.4-1.2-3.4-4.3v-1.1c0-3.1,1.3-4.3,3.4-4.3c1.7,0,3.1,0.9,3.4,3H1505.9z"/>
			<path d="M1522.9,771.7l-3.6-5.2l-2,2.3v2.8h-0.8v-9.7h0.8v5.6l4.7-5.6h1.1l-3.3,3.9l4,5.8H1522.9z"/>
			<path d="M1545.8,767.9v3.8h-0.8v-9.7h2.9c2.2,0,3.5,1.1,3.5,2.9c0,1.8-1.3,2.9-3.5,2.9H1545.8z M1547.9,767.2
				c1.9,0,2.7-0.8,2.7-2.2c0-1.4-0.8-2.2-2.7-2.2h-2.1v4.3H1547.9z"/>
			<path d="M1567,762.1v0.8h-4.9v3.5h4.5v0.8h-4.5v3.9h4.9v0.8h-5.7v-9.7H1567z"/>
			<path d="M1582.9,771.7l-2.1-4.1c-0.2,0-0.4,0-0.6,0h-2.2v4.1h-0.8v-9.7h3c2.2,0,3.4,1,3.4,2.8c0,1.4-0.7,2.3-2,2.6l2.2,4.3
				H1582.9z M1580.1,766.9c1.7,0,2.6-0.6,2.6-2c0-1.4-0.9-2-2.6-2h-2.2v4H1580.1z"/>
			<path d="M1592.5,771.7l3.3-9.7h0.8l3.3,9.7h-0.9l-0.8-2.4h-4.1l-0.8,2.4H1592.5z M1594.5,768.6h3.6l-1.8-5.3L1594.5,768.6z"/>
		</g>
		<g class="st1">
			<path d="M1609.8,771h4.9v0.8h-5.7v-9.7h0.8V771z"/>
		</g>
		<g class="st1">
			<path d="M1629.1,762.1v0.8h-3.1v8.9h-0.8v-8.9h-3.1v-0.8H1629.1z"/>
		</g>
		<g class="st1">
			<path d="M1637,771.7l3.3-9.7h0.8l3.3,9.7h-0.9l-0.8-2.4h-4.1l-0.8,2.4H1637z M1638.9,768.6h3.6l-1.8-5.3L1638.9,768.6z"/>
		</g>
		<path d="M1306.1,731.5l-18.1-40c-2.1,0.2-4.2,0.3-6.3,0.3h-21.5v40.2h-8v-94.6h29.5c21.4,0,33.7,9.3,33.7,27.3
			c0,13.4-7,22.1-19.5,25.5l19.1,41.4L1306.1,731.5z M1281.7,684.4c16.6,0,25.8-5.6,25.8-19.7s-9.2-19.9-25.8-19.9h-21.5v39.6
			H1281.7z"/>
		<path d="M1425.1,637.7v7.4h-55.3v34.5h51.1v7.4h-51.2v37.8h55.3v7.4h-63.2v-94.6H1425.1z"/>
		<path d="M1503.5,687.3l23.8-49.6h7.8v94.6h-8v-77.2l-20.2,42.7h-7.1l-20-42.6v77h-8v-94.5h7.7L1503.5,687.3z"/>
		<g class="st1">
			<path d="M1589.5,694.4v37.4h-8v-94.6h28.8c21.8,0,34.4,10.7,34.4,28.7c0,17.8-12.5,28.5-34.4,28.5H1589.5z M1610.3,687
				c18.2,0,26.5-7.8,26.5-21.1c0-13.4-8.2-21.2-26.5-21.2h-20.8V687H1610.3z"/>
		</g>
	</g>
</g>
</svg>
