<svg xmlns="http://www.w3.org/2000/svg" viewBox="0 0 482.25 470.27"><defs><style>.cls-1{fill:#fff;}</style></defs><g id="Layer_2" data-name="Layer 2"><g id="Layer_5" data-name="Layer 5"><path class="cls-1" d="M116.85,99.07c-12.7,0-21-7.89-21-26.6v-7c0-18.62,8.33-26.6,21-26.6s21,8,21,26.6v7C137.87,91.18,129.55,99.07,116.85,99.07Zm-16-26.6c0,16,6.35,22,16,22s16-5.92,16-22v-7c0-16-6.35-22-16-22s-16,6-16,22Z"/><path class="cls-1" d="M185.49,99.07c-12.7,0-21-7.89-21-26.6v-7c0-18.62,8.32-26.6,21-26.6s21,8,21,26.6v7C206.51,91.18,198.19,99.07,185.49,99.07Zm-16-26.6c0,16,6.34,22,16,22s16-5.92,16-22v-7c0-16-6.35-22-16-22s-16,6-16,22Z"/><path class="cls-1" d="M271,39.35V44H241.09V67h27.29v4.63H241.09v27h-5V39.35Z"/><path class="cls-1" d="M56.45,98.56l-19-41.87a51,51,0,0,1-6.6.28H8.32V99H0V0H30.86c22.38,0,35.3,9.76,35.3,28.56,0,14.06-7.32,23.1-20.38,26.69l20,43.31ZM30.86,49.22c17.36,0,27-5.88,27-20.66s-9.62-20.81-27-20.81H8.32V49.22Z"/><path class="cls-1" d="M66.6,123.55v7.75H8.75v36.17H62.29v7.75H8.75v39.61H66.6v7.75H.42v-99Z"/><path class="cls-1" d="M8.56,431.09v39.18H.24v-99H30.37c22.82,0,36,11.19,36,30,0,18.65-13.06,29.85-36,29.85Zm21.81-7.75c19.09,0,27.7-8.18,27.7-22.1S49.46,379,30.37,379H8.56v44.35Z"/><path class="cls-1" d="M33.27,299.12l24.95-52H66.4v99.39H58.08V265.34L36.86,310.17H29.39L8.46,265.49v81H.13V247.12h8Z"/><path class="cls-1" d="M286.42,192.81l14.34-29.89h4.7v59.2h-4.78V173.39l-12.2,25.77h-4.29l-12-25.68v48.64h-4.78v-59.2H272Z"/><path class="cls-1" d="M196.56,469.73,185.2,444.68a30,30,0,0,1-3.95.17H167.78V470h-5V410.77h18.45c13.4,0,21.12,5.83,21.12,17.08,0,8.41-4.38,13.82-12.19,16l12,25.91Zm-15.31-29.52c10.39,0,16.14-3.52,16.14-12.36s-5.75-12.45-16.14-12.45H167.78v24.81Z"/><path class="cls-1" d="M225.9,469.94l20.25-59.21h4.64L271,469.94H265.8l-4.89-14.42H236l-4.81,14.42Zm11.67-19.05h21.8l-10.9-32.18Z"/><path class="cls-1" d="M302,465.31h29.86v4.63H297V410.73h5Z"/><path class="cls-1" d="M388.42,410.73v4.64H369.63v54.57h-5V415.37H345.86v-4.64Z"/><path class="cls-1" d="M404.47,469.94l20.25-59.21h4.63l20.25,59.21h-5.23l-4.89-14.42H414.59l-4.8,14.42Zm11.67-19.05h21.79L427,418.71Z"/><path class="cls-1" d="M135.45,410.74v4.64H100.82V437h32.05v4.64H100.82v23.72h34.63V470H95.83V410.74Z"/><path class="cls-1" d="M96,346.39l20.83-60.9h4.76l20.83,60.9H137l-5-14.83h-25.6l-4.94,14.83Zm12-19.59h22.42l-11.21-33.1Z"/><path class="cls-1" d="M164.52,285.49l16.33,28.6,16.33-28.6h6l-19.77,34.25v26.65h-5.12V319.74l-19.77-34.25Z"/><path class="cls-1" d="M262.84,303.94c-2-10.33-8.12-14.21-16.41-14.21-10.42,0-16.51,6-16.51,22.59v7.24c0,16.68,6.18,22.6,16.51,22.6,8.82,0,14.47-4.68,16.41-14.39h5c-2,13.68-11,19.15-21.36,19.15-13.24,0-21.63-7.68-21.63-27.36v-7.24c0-19.68,8.39-27.36,21.63-27.36,10.85,0,19.5,5.65,21.44,19Z"/><path class="cls-1" d="M315.27,346.92c-13.07,0-21.63-8.12-21.63-27.36v-7.24c0-19.15,8.56-27.36,21.63-27.36s21.62,8.21,21.62,27.36v7.24C336.89,338.8,328.33,346.92,315.27,346.92Zm-16.51-27.36c0,16.51,6.53,22.6,16.51,22.6s16.5-6.09,16.5-22.6v-7.24c0-16.42-6.53-22.59-16.5-22.59s-16.51,6.17-16.51,22.59Z"/><path class="cls-1" d="M402.29,303.94c-2-10.33-8.12-14.21-16.42-14.21-10.41,0-16.5,6-16.5,22.59v7.24c0,16.68,6.17,22.6,16.5,22.6,8.83,0,14.48-4.68,16.42-14.39h4.94c-1.94,13.68-10.94,19.15-21.36,19.15-13.24,0-21.62-7.68-21.62-27.36v-7.24c0-19.68,8.38-27.36,21.62-27.36,10.86,0,19.51,5.65,21.45,19Z"/><path class="cls-1" d="M476.07,346.39l-22.42-32.48-12.36,14.65v17.83h-5.11v-60.9h5.11v35.39L471,285.49h6.71l-20.66,24.36,25.16,36.54Z"/><path class="cls-1" d="M101,222.3h-5V163.1h5Z"/><path class="cls-1" d="M134.51,222.3V163.1h18c13.12,0,21.45,7,21.45,26.08v7c0,19.13-8.33,26.08-21.45,26.08ZM169,196.22v-7c0-16.22-6.26-21.45-16.47-21.45H139.48v49.94h13.05C162.65,217.67,169,212.69,169,196.22Z"/><path class="cls-1" d="M196.54,222.3l20.25-59.2h4.64l20.25,59.2h-5.24l-4.89-14.41H206.67l-4.81,14.41Zm11.67-19.05H230l-10.9-32.17Z"/></g></g></svg>